<svg width="418" height="418" viewBox="0 0 418 418" fill="none" xmlns="http://www.w3.org/2000/svg">
<path d="M209.707 0.292893C209.317 -0.0976311 208.683 -0.0976311 208.293 0.292893L201.929 6.65685C201.538 7.04738 201.538 7.68054 201.929 8.07107C202.319 8.46159 202.953 8.46159 203.343 8.07107L209 2.41421L214.657 8.07107C215.047 8.46159 215.681 8.46159 216.071 8.07107C216.462 7.68054 216.462 7.04738 216.071 6.65685L209.707 0.292893ZM208.293 417.707C208.683 418.098 209.317 418.098 209.707 417.707L216.071 411.343C216.462 410.953 216.462 410.319 216.071 409.929C215.681 409.538 215.047 409.538 214.657 409.929L209 415.586L203.343 409.929C202.953 409.538 202.319 409.538 201.929 409.929C201.538 410.319 201.538 410.953 201.929 411.343L208.293 417.707ZM209 1L208 1L208 417L209 417L210 417L210 1L209 1Z" fill="white"/>
<path d="M0.292893 208.293C-0.0976311 208.683 -0.0976311 209.317 0.292893 209.707L6.65685 216.071C7.04738 216.462 7.68054 216.462 8.07107 216.071C8.46159 215.681 8.46159 215.047 8.07107 214.657L2.41421 209L8.07107 203.343C8.46159 202.953 8.46159 202.319 8.07107 201.929C7.68054 201.538 7.04738 201.538 6.65685 201.929L0.292893 208.293ZM417.707 209.707C418.098 209.317 418.098 208.683 417.707 208.293L411.343 201.929C410.953 201.538 410.319 201.538 409.929 201.929C409.538 202.319 409.538 202.953 409.929 203.343L415.586 209L409.929 214.657C409.538 215.047 409.538 215.681 409.929 216.071C410.319 216.462 410.953 216.462 411.343 216.071L417.707 209.707ZM1 209L1 210L417 210V209V208L1 208L1 209Z" fill="white"/>
<path d="M248.212 16H247.218V5.976H248.212L251.866 14.81L255.52 5.976H256.528V16H255.534V11.24C255.534 10.8013 255.534 10.4187 255.534 10.092C255.543 9.76533 255.548 9.48067 255.548 9.238C255.557 8.99533 255.567 8.78067 255.576 8.594C255.585 8.398 255.599 8.21133 255.618 8.034L252.356 16H251.39L248.128 8.076C248.156 8.26267 248.175 8.622 248.184 9.154C248.203 9.67667 248.212 10.3207 248.212 11.086V16ZM260.698 16.168C259.979 16.168 259.415 15.9813 259.004 15.608C258.603 15.2347 258.402 14.754 258.402 14.166C258.402 13.5407 258.626 13.0413 259.074 12.668C259.522 12.2947 260.143 12.0753 260.936 12.01L263.176 11.828V11.604C263.176 11.156 263.097 10.806 262.938 10.554C262.779 10.2927 262.565 10.1107 262.294 10.008C262.023 9.90533 261.72 9.854 261.384 9.854C260.787 9.854 260.325 9.98 259.998 10.232C259.671 10.484 259.508 10.8387 259.508 11.296H258.626C258.626 10.8387 258.743 10.442 258.976 10.106C259.209 9.77 259.536 9.50867 259.956 9.322C260.376 9.13533 260.861 9.042 261.412 9.042C261.944 9.042 262.411 9.13533 262.812 9.322C263.213 9.49933 263.531 9.77933 263.764 10.162C264.007 10.5353 264.128 11.0207 264.128 11.618V16H263.316L263.19 14.81C262.985 15.2393 262.658 15.5753 262.21 15.818C261.771 16.0513 261.267 16.168 260.698 16.168ZM260.922 15.384C261.641 15.384 262.196 15.1553 262.588 14.698C262.98 14.2407 263.176 13.648 263.176 12.92V12.556L261.174 12.71C260.539 12.766 260.082 12.9247 259.802 13.186C259.522 13.4473 259.382 13.7647 259.382 14.138C259.382 14.5487 259.522 14.8613 259.802 15.076C260.082 15.2813 260.455 15.384 260.922 15.384ZM266.067 16V9.224H267.033V16H266.067ZM266.543 7.362C266.347 7.362 266.179 7.292 266.039 7.152C265.899 7.012 265.829 6.844 265.829 6.648C265.829 6.452 265.899 6.284 266.039 6.144C266.179 5.99467 266.347 5.92 266.543 5.92C266.739 5.92 266.907 5.99467 267.047 6.144C267.196 6.284 267.271 6.452 267.271 6.648C267.271 6.844 267.196 7.012 267.047 7.152C266.907 7.292 266.739 7.362 266.543 7.362ZM270.013 16H269.047V9.224H269.887L270.027 10.4C270.251 9.97067 270.568 9.63933 270.979 9.406C271.399 9.16333 271.856 9.042 272.351 9.042C273.284 9.042 273.956 9.29867 274.367 9.812C274.778 10.3253 274.983 11.0067 274.983 11.856V16H274.017V12.066C274.017 11.2727 273.849 10.7173 273.513 10.4C273.186 10.0827 272.743 9.924 272.183 9.924C271.492 9.924 270.956 10.1573 270.573 10.624C270.2 11.0813 270.013 11.6927 270.013 12.458V16ZM282.737 16.168C282.019 16.168 281.454 15.9813 281.043 15.608C280.642 15.2347 280.441 14.754 280.441 14.166C280.441 13.5407 280.665 13.0413 281.113 12.668C281.561 12.2947 282.182 12.0753 282.975 12.01L285.215 11.828V11.604C285.215 11.156 285.136 10.806 284.977 10.554C284.819 10.2927 284.604 10.1107 284.333 10.008C284.063 9.90533 283.759 9.854 283.423 9.854C282.826 9.854 282.364 9.98 282.037 10.232C281.711 10.484 281.547 10.8387 281.547 11.296H280.665C280.665 10.8387 280.782 10.442 281.015 10.106C281.249 9.77 281.575 9.50867 281.995 9.322C282.415 9.13533 282.901 9.042 283.451 9.042C283.983 9.042 284.45 9.13533 284.851 9.322C285.253 9.49933 285.57 9.77933 285.803 10.162C286.046 10.5353 286.167 11.0207 286.167 11.618V16H285.355L285.229 14.81C285.024 15.2393 284.697 15.5753 284.249 15.818C283.811 16.0513 283.307 16.168 282.737 16.168ZM282.961 15.384C283.68 15.384 284.235 15.1553 284.627 14.698C285.019 14.2407 285.215 13.648 285.215 12.92V12.556L283.213 12.71C282.579 12.766 282.121 12.9247 281.841 13.186C281.561 13.4473 281.421 13.7647 281.421 14.138C281.421 14.5487 281.561 14.8613 281.841 15.076C282.121 15.2813 282.495 15.384 282.961 15.384ZM288.372 16H287.238L289.66 12.612L287.252 9.224H288.386L290.304 11.94L292.208 9.224H293.328L290.92 12.626L293.314 16H292.166L290.262 13.284L288.372 16ZM294.477 16V9.224H295.443V16H294.477ZM294.953 7.362C294.757 7.362 294.589 7.292 294.449 7.152C294.309 7.012 294.239 6.844 294.239 6.648C294.239 6.452 294.309 6.284 294.449 6.144C294.589 5.99467 294.757 5.92 294.953 5.92C295.149 5.92 295.317 5.99467 295.457 6.144C295.606 6.284 295.681 6.452 295.681 6.648C295.681 6.844 295.606 7.012 295.457 7.152C295.317 7.292 295.149 7.362 294.953 7.362ZM296.883 14.096H297.807C297.807 14.488 297.947 14.8007 298.227 15.034C298.507 15.258 298.881 15.37 299.347 15.37C299.87 15.37 300.276 15.2673 300.565 15.062C300.864 14.8473 301.013 14.558 301.013 14.194C301.013 13.914 300.934 13.69 300.775 13.522C300.617 13.354 300.337 13.2187 299.935 13.116L298.773 12.822C298.185 12.6727 297.747 12.444 297.457 12.136C297.168 11.828 297.023 11.4453 297.023 10.988C297.023 10.596 297.126 10.2553 297.331 9.966C297.537 9.66733 297.821 9.43867 298.185 9.28C298.559 9.12133 298.988 9.042 299.473 9.042C299.949 9.042 300.365 9.126 300.719 9.294C301.074 9.462 301.349 9.7 301.545 10.008C301.751 10.3067 301.858 10.666 301.867 11.086H300.929C300.92 10.6847 300.785 10.3767 300.523 10.162C300.262 9.94733 299.903 9.84 299.445 9.84C298.969 9.84 298.601 9.938 298.339 10.134C298.087 10.33 297.961 10.61 297.961 10.974C297.961 11.4967 298.33 11.8513 299.067 12.038L300.229 12.332C300.817 12.4813 301.247 12.7007 301.517 12.99C301.797 13.2793 301.937 13.6667 301.937 14.152C301.937 14.5533 301.83 14.908 301.615 15.216C301.401 15.524 301.097 15.762 300.705 15.93C300.323 16.0887 299.875 16.168 299.361 16.168C298.605 16.168 298.003 15.9813 297.555 15.608C297.107 15.2253 296.883 14.7213 296.883 14.096Z" fill="white"/>
<path d="M360.306 238.154C359.373 238.154 358.551 237.939 357.842 237.51C357.142 237.071 356.591 236.465 356.19 235.69C355.798 234.915 355.602 234.015 355.602 232.988C355.602 231.961 355.803 231.061 356.204 230.286C356.605 229.502 357.165 228.895 357.884 228.466C358.603 228.027 359.429 227.808 360.362 227.808C361.09 227.808 361.748 227.943 362.336 228.214C362.924 228.485 363.419 228.867 363.82 229.362C364.221 229.847 364.487 230.426 364.618 231.098H363.54C363.325 230.37 362.933 229.801 362.364 229.39C361.795 228.979 361.113 228.774 360.32 228.774C359.592 228.774 358.948 228.951 358.388 229.306C357.837 229.651 357.408 230.141 357.1 230.776C356.801 231.401 356.652 232.139 356.652 232.988C356.652 233.819 356.806 234.551 357.114 235.186C357.422 235.821 357.851 236.315 358.402 236.67C358.953 237.015 359.592 237.188 360.32 237.188C361.113 237.188 361.804 236.987 362.392 236.586C362.98 236.185 363.381 235.653 363.596 234.99H364.674C364.525 235.615 364.24 236.166 363.82 236.642C363.409 237.118 362.901 237.491 362.294 237.762C361.687 238.023 361.025 238.154 360.306 238.154ZM369.749 231.14V232.008H369.217C368.592 232.008 368.093 232.199 367.719 232.582C367.355 232.965 367.173 233.483 367.173 234.136V238H366.207V231.224H367.117L367.201 232.554H367.103C367.197 232.115 367.425 231.761 367.789 231.49C368.153 231.21 368.597 231.07 369.119 231.07C369.222 231.07 369.325 231.075 369.427 231.084C369.53 231.093 369.637 231.112 369.749 231.14ZM370.298 234.612C370.298 233.912 370.447 233.296 370.746 232.764C371.044 232.232 371.455 231.812 371.978 231.504C372.5 231.196 373.088 231.042 373.742 231.042C374.404 231.042 374.992 231.196 375.506 231.504C376.028 231.812 376.439 232.232 376.738 232.764C377.036 233.296 377.186 233.912 377.186 234.612C377.186 235.293 377.036 235.905 376.738 236.446C376.439 236.978 376.028 237.398 375.506 237.706C374.992 238.014 374.404 238.168 373.742 238.168C373.088 238.168 372.5 238.014 371.978 237.706C371.455 237.398 371.044 236.978 370.746 236.446C370.447 235.905 370.298 235.293 370.298 234.612ZM371.278 234.598C371.278 235.13 371.38 235.601 371.586 236.012C371.8 236.413 372.09 236.731 372.454 236.964C372.827 237.188 373.256 237.3 373.742 237.3C374.227 237.3 374.652 237.188 375.016 236.964C375.389 236.731 375.678 236.413 375.884 236.012C376.098 235.601 376.206 235.13 376.206 234.598C376.206 234.075 376.098 233.613 375.884 233.212C375.678 232.811 375.389 232.493 375.016 232.26C374.652 232.027 374.227 231.91 373.742 231.91C373.256 231.91 372.827 232.027 372.454 232.26C372.09 232.493 371.8 232.811 371.586 233.212C371.38 233.613 371.278 234.075 371.278 234.598ZM378.157 236.096H379.081C379.081 236.488 379.221 236.801 379.501 237.034C379.781 237.258 380.154 237.37 380.621 237.37C381.143 237.37 381.549 237.267 381.839 237.062C382.137 236.847 382.287 236.558 382.287 236.194C382.287 235.914 382.207 235.69 382.049 235.522C381.89 235.354 381.61 235.219 381.209 235.116L380.047 234.822C379.459 234.673 379.02 234.444 378.731 234.136C378.441 233.828 378.297 233.445 378.297 232.988C378.297 232.596 378.399 232.255 378.605 231.966C378.81 231.667 379.095 231.439 379.459 231.28C379.832 231.121 380.261 231.042 380.747 231.042C381.223 231.042 381.638 231.126 381.993 231.294C382.347 231.462 382.623 231.7 382.819 232.008C383.024 232.307 383.131 232.666 383.141 233.086H382.203C382.193 232.685 382.058 232.377 381.797 232.162C381.535 231.947 381.176 231.84 380.719 231.84C380.243 231.84 379.874 231.938 379.613 232.134C379.361 232.33 379.235 232.61 379.235 232.974C379.235 233.497 379.603 233.851 380.341 234.038L381.503 234.332C382.091 234.481 382.52 234.701 382.791 234.99C383.071 235.279 383.211 235.667 383.211 236.152C383.211 236.553 383.103 236.908 382.889 237.216C382.674 237.524 382.371 237.762 381.979 237.93C381.596 238.089 381.148 238.168 380.635 238.168C379.879 238.168 379.277 237.981 378.829 237.608C378.381 237.225 378.157 236.721 378.157 236.096ZM384.227 236.096H385.151C385.151 236.488 385.291 236.801 385.571 237.034C385.851 237.258 386.224 237.37 386.691 237.37C387.214 237.37 387.62 237.267 387.909 237.062C388.208 236.847 388.357 236.558 388.357 236.194C388.357 235.914 388.278 235.69 388.119 235.522C387.96 235.354 387.68 235.219 387.279 235.116L386.117 234.822C385.529 234.673 385.09 234.444 384.801 234.136C384.512 233.828 384.367 233.445 384.367 232.988C384.367 232.596 384.47 232.255 384.675 231.966C384.88 231.667 385.165 231.439 385.529 231.28C385.902 231.121 386.332 231.042 386.817 231.042C387.293 231.042 387.708 231.126 388.063 231.294C388.418 231.462 388.693 231.7 388.889 232.008C389.094 232.307 389.202 232.666 389.211 233.086H388.273C388.264 232.685 388.128 232.377 387.867 232.162C387.606 231.947 387.246 231.84 386.789 231.84C386.313 231.84 385.944 231.938 385.683 232.134C385.431 232.33 385.305 232.61 385.305 232.974C385.305 233.497 385.674 233.851 386.411 234.038L387.573 234.332C388.161 234.481 388.59 234.701 388.861 234.99C389.141 235.279 389.281 235.667 389.281 236.152C389.281 236.553 389.174 236.908 388.959 237.216C388.744 237.524 388.441 237.762 388.049 237.93C387.666 238.089 387.218 238.168 386.705 238.168C385.949 238.168 385.347 237.981 384.899 237.608C384.451 237.225 384.227 236.721 384.227 236.096ZM396.7 238.168C395.981 238.168 395.417 237.981 395.006 237.608C394.605 237.235 394.404 236.754 394.404 236.166C394.404 235.541 394.628 235.041 395.076 234.668C395.524 234.295 396.145 234.075 396.938 234.01L399.178 233.828V233.604C399.178 233.156 399.099 232.806 398.94 232.554C398.781 232.293 398.567 232.111 398.296 232.008C398.025 231.905 397.722 231.854 397.386 231.854C396.789 231.854 396.327 231.98 396 232.232C395.673 232.484 395.51 232.839 395.51 233.296H394.628C394.628 232.839 394.745 232.442 394.978 232.106C395.211 231.77 395.538 231.509 395.958 231.322C396.378 231.135 396.863 231.042 397.414 231.042C397.946 231.042 398.413 231.135 398.814 231.322C399.215 231.499 399.533 231.779 399.766 232.162C400.009 232.535 400.13 233.021 400.13 233.618V238H399.318L399.192 236.81C398.987 237.239 398.66 237.575 398.212 237.818C397.773 238.051 397.269 238.168 396.7 238.168ZM396.924 237.384C397.643 237.384 398.198 237.155 398.59 236.698C398.982 236.241 399.178 235.648 399.178 234.92V234.556L397.176 234.71C396.541 234.766 396.084 234.925 395.804 235.186C395.524 235.447 395.384 235.765 395.384 236.138C395.384 236.549 395.524 236.861 395.804 237.076C396.084 237.281 396.457 237.384 396.924 237.384ZM402.335 238H401.201L403.623 234.612L401.215 231.224H402.349L404.267 233.94L406.171 231.224H407.291L404.883 234.626L407.277 238H406.129L404.225 235.284L402.335 238ZM408.44 238V231.224H409.406V238H408.44ZM408.916 229.362C408.72 229.362 408.552 229.292 408.412 229.152C408.272 229.012 408.202 228.844 408.202 228.648C408.202 228.452 408.272 228.284 408.412 228.144C408.552 227.995 408.72 227.92 408.916 227.92C409.112 227.92 409.28 227.995 409.42 228.144C409.569 228.284 409.644 228.452 409.644 228.648C409.644 228.844 409.569 229.012 409.42 229.152C409.28 229.292 409.112 229.362 408.916 229.362ZM410.846 236.096H411.77C411.77 236.488 411.91 236.801 412.19 237.034C412.47 237.258 412.843 237.37 413.31 237.37C413.833 237.37 414.239 237.267 414.528 237.062C414.827 236.847 414.976 236.558 414.976 236.194C414.976 235.914 414.897 235.69 414.738 235.522C414.579 235.354 414.299 235.219 413.898 235.116L412.736 234.822C412.148 234.673 411.709 234.444 411.42 234.136C411.131 233.828 410.986 233.445 410.986 232.988C410.986 232.596 411.089 232.255 411.294 231.966C411.499 231.667 411.784 231.439 412.148 231.28C412.521 231.121 412.951 231.042 413.436 231.042C413.912 231.042 414.327 231.126 414.682 231.294C415.037 231.462 415.312 231.7 415.508 232.008C415.713 232.307 415.821 232.666 415.83 233.086H414.892C414.883 232.685 414.747 232.377 414.486 232.162C414.225 231.947 413.865 231.84 413.408 231.84C412.932 231.84 412.563 231.938 412.302 232.134C412.05 232.33 411.924 232.61 411.924 232.974C411.924 233.497 412.293 233.851 413.03 234.038L414.192 234.332C414.78 234.481 415.209 234.701 415.48 234.99C415.76 235.279 415.9 235.667 415.9 236.152C415.9 236.553 415.793 236.908 415.578 237.216C415.363 237.524 415.06 237.762 414.668 237.93C414.285 238.089 413.837 238.168 413.324 238.168C412.568 238.168 411.966 237.981 411.518 237.608C411.07 237.225 410.846 236.721 410.846 236.096Z" fill="white"/>
</svg>
