<svg width="788" height="484" viewBox="0 0 788 484" fill="none" xmlns="http://www.w3.org/2000/svg">
<rect width="788" height="484" fill="#DEF4C6"/>
<path d="M34.86 53H32.22L37.5 38.38H40.12L45.4 53H42.7L41.52 49.62H36.06L34.86 53ZM38.48 42.74L36.8 47.46H40.78L39.1 42.74C39.0467 42.54 38.9867 42.34 38.92 42.14C38.8533 41.94 38.8133 41.7667 38.8 41.62C38.7733 41.7533 38.7267 41.9267 38.66 42.14C38.6067 42.34 38.5467 42.54 38.48 42.74ZM48.5933 53H45.8133L49.2133 48.16L45.8133 43.12H48.6533L50.8333 46.48L52.9333 43.12H55.6733L52.3133 48.14L55.5733 53H52.7733L50.6533 49.74L48.5933 53ZM57.1272 53V43.12H59.5672V53H57.1272ZM58.3272 41.14C57.9139 41.14 57.5605 41 57.2672 40.72C56.9872 40.4267 56.8472 40.0733 56.8472 39.66C56.8472 39.2467 56.9872 38.9 57.2672 38.62C57.5605 38.34 57.9139 38.2 58.3272 38.2C58.7405 38.2 59.0872 38.34 59.3672 38.62C59.6605 38.9 59.8072 39.2467 59.8072 39.66C59.8072 40.0733 59.6605 40.4267 59.3672 40.72C59.0872 41 58.7405 41.14 58.3272 41.14ZM61.3281 50H63.6481C63.6615 50.4267 63.8215 50.7667 64.1281 51.02C64.4348 51.2733 64.8615 51.4 65.4081 51.4C65.9948 51.4 66.4348 51.2933 66.7281 51.08C67.0348 50.8667 67.1881 50.58 67.1881 50.22C67.1881 49.98 67.1081 49.7667 66.9481 49.58C66.7881 49.3933 66.4881 49.2533 66.0481 49.16L64.2681 48.74C63.3748 48.54 62.7081 48.22 62.2681 47.78C61.8415 47.3267 61.6281 46.7067 61.6281 45.92C61.6281 45.28 61.7948 44.7267 62.1281 44.26C62.4748 43.7933 62.9415 43.44 63.5281 43.2C64.1148 42.9467 64.7881 42.82 65.5481 42.82C66.2815 42.82 66.9281 42.9533 67.4881 43.22C68.0481 43.4867 68.4815 43.86 68.7881 44.34C69.1081 44.82 69.2748 45.38 69.2881 46.02H66.9681C66.9681 45.5933 66.8348 45.26 66.5681 45.02C66.3015 44.7667 65.9281 44.64 65.4481 44.64C64.9681 44.64 64.5948 44.7467 64.3281 44.96C64.0615 45.1733 63.9281 45.46 63.9281 45.82C63.9281 46.3667 64.3548 46.74 65.2081 46.94L66.9881 47.36C67.8148 47.5467 68.4348 47.8467 68.8481 48.26C69.2748 48.6733 69.4881 49.26 69.4881 50.02C69.4881 50.6867 69.3148 51.2667 68.9681 51.76C68.6215 52.24 68.1348 52.6133 67.5081 52.88C66.8815 53.1333 66.1615 53.26 65.3481 53.26C64.1215 53.26 63.1415 52.96 62.4081 52.36C61.6881 51.76 61.3281 50.9733 61.3281 50ZM79.6766 53.26C78.6366 53.26 77.8099 52.98 77.1966 52.42C76.5966 51.8467 76.2966 51.1 76.2966 50.18C76.2966 49.2733 76.6099 48.5533 77.2366 48.02C77.8766 47.4733 78.7832 47.1533 79.9566 47.06L82.9166 46.82V46.6C82.9166 46.1467 82.8299 45.7867 82.6566 45.52C82.4966 45.24 82.2632 45.04 81.9566 44.92C81.6499 44.7867 81.2899 44.72 80.8766 44.72C80.1566 44.72 79.6032 44.8667 79.2166 45.16C78.8299 45.44 78.6366 45.84 78.6366 46.36H76.5566C76.5566 45.64 76.7366 45.02 77.0966 44.5C77.4699 43.9667 77.9899 43.5533 78.6566 43.26C79.3366 42.9667 80.1166 42.82 80.9966 42.82C81.8899 42.82 82.6566 42.98 83.2966 43.3C83.9366 43.6067 84.4299 44.0733 84.7766 44.7C85.1232 45.3133 85.2966 46.08 85.2966 47V53H83.1566L82.9766 51.54C82.7632 52.0467 82.3499 52.46 81.7366 52.78C81.1366 53.1 80.4499 53.26 79.6766 53.26ZM80.4566 51.42C81.2166 51.42 81.8166 51.2067 82.2566 50.78C82.7099 50.3533 82.9366 49.76 82.9366 49V48.48L80.8766 48.64C80.1166 48.7067 79.5766 48.8667 79.2566 49.12C78.9366 49.36 78.7766 49.68 78.7766 50.08C78.7766 50.52 78.9232 50.8533 79.2166 51.08C79.5099 51.3067 79.9232 51.42 80.4566 51.42ZM90.1536 53H87.7336V38.12H90.1536V53ZM92.7131 53V43.12H95.1531V53H92.7131ZM93.9131 41.14C93.4998 41.14 93.1465 41 92.8531 40.72C92.5731 40.4267 92.4331 40.0733 92.4331 39.66C92.4331 39.2467 92.5731 38.9 92.8531 38.62C93.1465 38.34 93.4998 38.2 93.9131 38.2C94.3265 38.2 94.6731 38.34 94.9531 38.62C95.2465 38.9 95.3931 39.2467 95.3931 39.66C95.3931 40.0733 95.2465 40.4267 94.9531 40.72C94.6731 41 94.3265 41.14 93.9131 41.14ZM97.1141 47.84C97.1141 46.88 97.3074 46.0267 97.6941 45.28C98.0941 44.52 98.6474 43.92 99.3541 43.48C100.061 43.04 100.881 42.82 101.814 42.82C102.654 42.82 103.374 43.0067 103.974 43.38C104.574 43.74 104.994 44.2467 105.234 44.9L104.974 45.12L105.174 43.12H107.434V52.5C107.434 53.5933 107.221 54.54 106.794 55.34C106.381 56.1533 105.787 56.7733 105.014 57.2C104.254 57.64 103.334 57.86 102.254 57.86C100.841 57.86 99.6807 57.48 98.7741 56.72C97.8674 55.96 97.3341 54.92 97.1741 53.6H99.6141C99.6941 54.24 99.9607 54.74 100.414 55.1C100.881 55.46 101.494 55.64 102.254 55.64C103.094 55.64 103.761 55.3933 104.254 54.9C104.761 54.42 105.014 53.7667 105.014 52.94V50.48L105.294 50.74C105.054 51.3667 104.614 51.8667 103.974 52.24C103.334 52.6133 102.594 52.8 101.754 52.8C100.821 52.8 100.007 52.5867 99.3141 52.16C98.6207 51.7333 98.0807 51.1467 97.6941 50.4C97.3074 49.6533 97.1141 48.8 97.1141 47.84ZM99.5741 47.78C99.5741 48.34 99.6807 48.84 99.8941 49.28C100.121 49.7067 100.434 50.0467 100.834 50.3C101.234 50.5533 101.701 50.68 102.234 50.68C102.794 50.68 103.274 50.56 103.674 50.32C104.087 50.0667 104.401 49.7267 104.614 49.3C104.841 48.86 104.954 48.3533 104.954 47.78C104.954 47.2067 104.847 46.7133 104.634 46.3C104.421 45.8733 104.107 45.54 103.694 45.3C103.294 45.06 102.807 44.94 102.234 44.94C101.687 44.94 101.214 45.0667 100.814 45.32C100.414 45.56 100.107 45.8933 99.8941 46.32C99.6807 46.7467 99.5741 47.2333 99.5741 47.78ZM112.399 53H109.959V43.12H112.219L112.419 44.4C112.726 43.9067 113.159 43.52 113.719 43.24C114.293 42.96 114.913 42.82 115.579 42.82C116.819 42.82 117.753 43.1867 118.379 43.92C119.019 44.6533 119.339 45.6533 119.339 46.92V53H116.899V47.5C116.899 46.6733 116.713 46.06 116.339 45.66C115.966 45.2467 115.459 45.04 114.819 45.04C114.059 45.04 113.466 45.28 113.039 45.76C112.613 46.24 112.399 46.88 112.399 47.68V53ZM124.177 53H121.737V43.12H123.977L124.277 44.88L123.997 44.64C124.197 44.16 124.563 43.74 125.097 43.38C125.63 43.0067 126.297 42.82 127.097 42.82C127.963 42.82 128.67 43.0467 129.217 43.5C129.777 43.9533 130.163 44.5533 130.377 45.3H129.977C130.123 44.5533 130.497 43.9533 131.097 43.5C131.71 43.0467 132.45 42.82 133.317 42.82C134.517 42.82 135.437 43.16 136.077 43.84C136.717 44.5067 137.037 45.4067 137.037 46.54V53H134.617V47.18C134.617 46.4733 134.437 45.94 134.077 45.58C133.73 45.2067 133.263 45.02 132.677 45.02C132.303 45.02 131.957 45.1067 131.637 45.28C131.33 45.4533 131.083 45.7133 130.897 46.06C130.71 46.4067 130.617 46.8533 130.617 47.4V53H128.177V47.16C128.177 46.4667 128.003 45.94 127.657 45.58C127.31 45.22 126.85 45.04 126.277 45.04C125.89 45.04 125.537 45.1267 125.217 45.3C124.897 45.46 124.643 45.72 124.457 46.08C124.27 46.4267 124.177 46.8667 124.177 47.4V53ZM143.852 53.26C142.879 53.26 142.012 53.04 141.252 52.6C140.505 52.1467 139.919 51.5333 139.492 50.76C139.065 49.9733 138.852 49.0733 138.852 48.06C138.852 47.0333 139.059 46.1267 139.472 45.34C139.885 44.5533 140.465 43.94 141.212 43.5C141.959 43.0467 142.812 42.82 143.772 42.82C144.772 42.82 145.632 43.0333 146.352 43.46C147.072 43.8733 147.625 44.4533 148.012 45.2C148.412 45.9467 148.612 46.84 148.612 47.88V48.62L140.132 48.64L140.172 47.08H146.192C146.192 46.4 145.972 45.8533 145.532 45.44C145.105 45.0267 144.525 44.82 143.792 44.82C143.219 44.82 142.732 44.94 142.332 45.18C141.945 45.42 141.652 45.78 141.452 46.26C141.252 46.74 141.152 47.3267 141.152 48.02C141.152 49.0867 141.379 49.8933 141.832 50.44C142.299 50.9867 142.985 51.26 143.892 51.26C144.559 51.26 145.105 51.1333 145.532 50.88C145.972 50.6267 146.259 50.2667 146.392 49.8H148.652C148.439 50.88 147.905 51.7267 147.052 52.34C146.212 52.9533 145.145 53.26 143.852 53.26ZM153.005 53H150.565V43.12H152.825L153.025 44.4C153.331 43.9067 153.765 43.52 154.325 43.24C154.898 42.96 155.518 42.82 156.185 42.82C157.425 42.82 158.358 43.1867 158.985 43.92C159.625 44.6533 159.945 45.6533 159.945 46.92V53H157.505V47.5C157.505 46.6733 157.318 46.06 156.945 45.66C156.571 45.2467 156.065 45.04 155.425 45.04C154.665 45.04 154.071 45.28 153.645 45.76C153.218 46.24 153.005 46.88 153.005 47.68V53ZM161.362 43.12H167.602V45.16H161.362V43.12ZM165.702 53H163.262V40.04H165.702V53Z" fill="#223300"/>
<path d="M34.912 112H33.344V100.432H34.912V105.408H40.64V100.432H42.208V112H40.64V106.864H34.912V112ZM44.1229 108.08C44.1229 107.28 44.2989 106.571 44.6509 105.952C45.0029 105.333 45.4829 104.848 46.0909 104.496C46.7095 104.144 47.4135 103.968 48.2029 103.968C48.9922 103.968 49.6909 104.144 50.2989 104.496C50.9069 104.848 51.3869 105.333 51.7389 105.952C52.0909 106.571 52.2669 107.28 52.2669 108.08C52.2669 108.88 52.0909 109.589 51.7389 110.208C51.3869 110.827 50.9069 111.312 50.2989 111.664C49.6909 112.016 48.9922 112.192 48.2029 112.192C47.4135 112.192 46.7095 112.016 46.0909 111.664C45.4829 111.312 45.0029 110.827 44.6509 110.208C44.2989 109.589 44.1229 108.88 44.1229 108.08ZM45.6429 108.08C45.6429 108.624 45.7495 109.104 45.9629 109.52C46.1869 109.936 46.4909 110.261 46.8749 110.496C47.2589 110.731 47.7015 110.848 48.2029 110.848C48.7042 110.848 49.1469 110.731 49.5309 110.496C49.9149 110.261 50.2135 109.936 50.4269 109.52C50.6509 109.104 50.7629 108.624 50.7629 108.08C50.7629 107.525 50.6509 107.045 50.4269 106.64C50.2135 106.224 49.9149 105.899 49.5309 105.664C49.1469 105.429 48.7042 105.312 48.2029 105.312C47.7015 105.312 47.2589 105.429 46.8749 105.664C46.4909 105.899 46.1869 106.224 45.9629 106.64C45.7495 107.045 45.6429 107.525 45.6429 108.08ZM58.4118 104.112V105.488H57.7398C57.0251 105.488 56.4598 105.696 56.0438 106.112C55.6384 106.517 55.4358 107.099 55.4358 107.856V112H53.9318V104.192H55.3398L55.4678 105.76H55.3238C55.4304 105.248 55.6864 104.832 56.0918 104.512C56.4971 104.181 57.0038 104.016 57.6118 104.016C57.7504 104.016 57.8784 104.027 57.9958 104.048C58.1238 104.059 58.2624 104.08 58.4118 104.112ZM59.8224 112V104.176H61.3264V112H59.8224ZM60.5584 102.32C60.2917 102.32 60.057 102.224 59.8544 102.032C59.6624 101.829 59.5664 101.595 59.5664 101.328C59.5664 101.051 59.6624 100.816 59.8544 100.624C60.057 100.432 60.2917 100.336 60.5584 100.336C60.8357 100.336 61.0704 100.432 61.2624 100.624C61.4544 100.816 61.5504 101.051 61.5504 101.328C61.5504 101.595 61.4544 101.829 61.2624 102.032C61.0704 102.224 60.8357 102.32 60.5584 102.32ZM69.1259 112H63.0299V110.784L67.2539 105.44H63.0299V104.176H69.1259V105.408L64.8699 110.736H69.1259V112ZM70.1385 108.08C70.1385 107.28 70.3145 106.571 70.6665 105.952C71.0185 105.333 71.4985 104.848 72.1065 104.496C72.7252 104.144 73.4292 103.968 74.2185 103.968C75.0078 103.968 75.7065 104.144 76.3145 104.496C76.9225 104.848 77.4025 105.333 77.7545 105.952C78.1065 106.571 78.2825 107.28 78.2825 108.08C78.2825 108.88 78.1065 109.589 77.7545 110.208C77.4025 110.827 76.9225 111.312 76.3145 111.664C75.7065 112.016 75.0078 112.192 74.2185 112.192C73.4292 112.192 72.7252 112.016 72.1065 111.664C71.4985 111.312 71.0185 110.827 70.6665 110.208C70.3145 109.589 70.1385 108.88 70.1385 108.08ZM71.6585 108.08C71.6585 108.624 71.7652 109.104 71.9785 109.52C72.2025 109.936 72.5065 110.261 72.8905 110.496C73.2745 110.731 73.7172 110.848 74.2185 110.848C74.7198 110.848 75.1625 110.731 75.5465 110.496C75.9305 110.261 76.2292 109.936 76.4425 109.52C76.6665 109.104 76.7785 108.624 76.7785 108.08C76.7785 107.525 76.6665 107.045 76.4425 106.64C76.2292 106.224 75.9305 105.899 75.5465 105.664C75.1625 105.429 74.7198 105.312 74.2185 105.312C73.7172 105.312 73.2745 105.429 72.8905 105.664C72.5065 105.899 72.2025 106.224 71.9785 106.64C71.7652 107.045 71.6585 107.525 71.6585 108.08ZM81.4514 112H79.9474V104.176H81.3074L81.4674 105.376C81.7127 104.928 82.0647 104.581 82.5234 104.336C82.9927 104.08 83.5047 103.952 84.0594 103.952C85.0834 103.952 85.8407 104.245 86.3314 104.832C86.822 105.419 87.0674 106.213 87.0674 107.216V112H85.5634V107.552C85.5634 106.763 85.3927 106.197 85.0514 105.856C84.71 105.504 84.2514 105.328 83.6754 105.328C82.9714 105.328 82.422 105.557 82.0274 106.016C81.6434 106.475 81.4514 107.088 81.4514 107.856V112ZM88.3185 104.176H92.8945V105.44H88.3185V104.176ZM91.3585 112H89.8545V101.728H91.3585V112ZM96.4385 112.192C95.6065 112.192 94.9505 111.973 94.4705 111.536C94.0012 111.099 93.7665 110.528 93.7665 109.824C93.7665 109.109 94.0225 108.539 94.5345 108.112C95.0465 107.675 95.7612 107.419 96.6785 107.344L99.1425 107.152V106.928C99.1425 106.491 99.0625 106.144 98.9025 105.888C98.7425 105.621 98.5238 105.435 98.2465 105.328C97.9692 105.211 97.6545 105.152 97.3025 105.152C96.6732 105.152 96.1825 105.285 95.8305 105.552C95.4892 105.808 95.3185 106.176 95.3185 106.656H94.0065C94.0065 106.112 94.1452 105.637 94.4225 105.232C94.6998 104.827 95.0892 104.512 95.5905 104.288C96.1025 104.064 96.6945 103.952 97.3665 103.952C98.0172 103.952 98.5825 104.069 99.0625 104.304C99.5532 104.528 99.9318 104.875 100.199 105.344C100.476 105.803 100.615 106.384 100.615 107.088V112H99.3345L99.1745 110.736C98.9718 111.184 98.6198 111.541 98.1185 111.808C97.6278 112.064 97.0678 112.192 96.4385 112.192ZM96.8705 111.024C97.5852 111.024 98.1452 110.811 98.5505 110.384C98.9558 109.947 99.1585 109.36 99.1585 108.624V108.208L97.1585 108.368C96.4972 108.432 96.0172 108.587 95.7185 108.832C95.4305 109.077 95.2865 109.392 95.2865 109.776C95.2865 110.192 95.4252 110.507 95.7025 110.72C95.9905 110.923 96.3798 111.024 96.8705 111.024ZM104.233 112H102.729V100.224H104.233V112ZM112.358 112H110.854V100.224H112.358V112ZM116.86 112.192C116.028 112.192 115.372 111.973 114.892 111.536C114.423 111.099 114.188 110.528 114.188 109.824C114.188 109.109 114.444 108.539 114.956 108.112C115.468 107.675 116.183 107.419 117.1 107.344L119.564 107.152V106.928C119.564 106.491 119.484 106.144 119.324 105.888C119.164 105.621 118.946 105.435 118.668 105.328C118.391 105.211 118.076 105.152 117.724 105.152C117.095 105.152 116.604 105.285 116.252 105.552C115.911 105.808 115.74 106.176 115.74 106.656H114.428C114.428 106.112 114.567 105.637 114.844 105.232C115.122 104.827 115.511 104.512 116.012 104.288C116.524 104.064 117.116 103.952 117.788 103.952C118.439 103.952 119.004 104.069 119.484 104.304C119.975 104.528 120.354 104.875 120.62 105.344C120.898 105.803 121.036 106.384 121.036 107.088V112H119.756L119.596 110.736C119.394 111.184 119.042 111.541 118.54 111.808C118.05 112.064 117.49 112.192 116.86 112.192ZM117.292 111.024C118.007 111.024 118.567 110.811 118.972 110.384C119.378 109.947 119.58 109.36 119.58 108.624V108.208L117.58 108.368C116.919 108.432 116.439 108.587 116.14 108.832C115.852 109.077 115.708 109.392 115.708 109.776C115.708 110.192 115.847 110.507 116.124 110.72C116.412 110.923 116.802 111.024 117.292 111.024ZM123.556 104.176L126.308 111.792L125.38 113.072L121.972 104.176H123.556ZM122.18 115.504V114.272H123.188C123.433 114.272 123.657 114.245 123.86 114.192C124.062 114.149 124.249 114.048 124.42 113.888C124.59 113.739 124.734 113.499 124.852 113.168L128.148 104.176H129.7L126.004 113.76C125.737 114.432 125.401 114.917 124.996 115.216C124.59 115.515 124.089 115.664 123.492 115.664C123.246 115.664 123.017 115.648 122.804 115.616C122.59 115.595 122.382 115.557 122.18 115.504ZM130.076 108.08C130.076 107.28 130.252 106.571 130.604 105.952C130.956 105.333 131.436 104.848 132.044 104.496C132.663 104.144 133.367 103.968 134.156 103.968C134.945 103.968 135.644 104.144 136.252 104.496C136.86 104.848 137.34 105.333 137.692 105.952C138.044 106.571 138.22 107.28 138.22 108.08C138.22 108.88 138.044 109.589 137.692 110.208C137.34 110.827 136.86 111.312 136.252 111.664C135.644 112.016 134.945 112.192 134.156 112.192C133.367 112.192 132.663 112.016 132.044 111.664C131.436 111.312 130.956 110.827 130.604 110.208C130.252 109.589 130.076 108.88 130.076 108.08ZM131.596 108.08C131.596 108.624 131.703 109.104 131.916 109.52C132.14 109.936 132.444 110.261 132.828 110.496C133.212 110.731 133.655 110.848 134.156 110.848C134.657 110.848 135.1 110.731 135.484 110.496C135.868 110.261 136.167 109.936 136.38 109.52C136.604 109.104 136.716 108.624 136.716 108.08C136.716 107.525 136.604 107.045 136.38 106.64C136.167 106.224 135.868 105.899 135.484 105.664C135.1 105.429 134.657 105.312 134.156 105.312C133.655 105.312 133.212 105.429 132.828 105.664C132.444 105.899 132.14 106.224 131.916 106.64C131.703 107.045 131.596 107.525 131.596 108.08ZM145.105 104.176H146.593V112H145.249L145.089 110.816C144.865 111.221 144.513 111.552 144.033 111.808C143.553 112.064 143.025 112.192 142.449 112.192C141.543 112.192 140.839 111.909 140.337 111.344C139.847 110.768 139.601 110 139.601 109.04V104.176H141.105V108.544C141.105 109.376 141.271 109.973 141.601 110.336C141.943 110.688 142.401 110.864 142.977 110.864C143.671 110.864 144.199 110.651 144.561 110.224C144.924 109.787 145.105 109.147 145.105 108.304V104.176ZM147.944 104.176H152.52V105.44H147.944V104.176ZM150.984 112H149.48V101.728H150.984V112ZM153.229 109.728H154.669C154.669 110.123 154.813 110.437 155.101 110.672C155.389 110.896 155.779 111.008 156.269 111.008C156.803 111.008 157.213 110.907 157.501 110.704C157.789 110.491 157.933 110.208 157.933 109.856C157.933 109.6 157.853 109.387 157.693 109.216C157.544 109.045 157.267 108.907 156.861 108.8L155.485 108.48C154.792 108.309 154.275 108.048 153.933 107.696C153.603 107.344 153.437 106.88 153.437 106.304C153.437 105.824 153.56 105.408 153.805 105.056C154.061 104.704 154.408 104.432 154.845 104.24C155.293 104.048 155.805 103.952 156.381 103.952C156.957 103.952 157.453 104.053 157.869 104.256C158.296 104.459 158.627 104.741 158.861 105.104C159.107 105.467 159.235 105.899 159.245 106.4H157.805C157.795 105.995 157.661 105.68 157.405 105.456C157.149 105.232 156.792 105.12 156.333 105.12C155.864 105.12 155.501 105.221 155.245 105.424C154.989 105.627 154.861 105.904 154.861 106.256C154.861 106.779 155.245 107.136 156.013 107.328L157.389 107.664C158.051 107.813 158.547 108.059 158.877 108.4C159.208 108.731 159.373 109.184 159.373 109.76C159.373 110.251 159.24 110.683 158.973 111.056C158.707 111.419 158.339 111.701 157.869 111.904C157.411 112.096 156.867 112.192 156.237 112.192C155.32 112.192 154.589 111.968 154.045 111.52C153.501 111.072 153.229 110.475 153.229 109.728Z" fill="#344B00"/>
<path d="M32.616 140.58C32.616 140.02 32.756 139.535 33.036 139.124C33.316 138.704 33.708 138.377 34.212 138.144C34.716 137.911 35.304 137.794 35.976 137.794C36.5827 137.794 37.11 137.901 37.558 138.116C38.0153 138.331 38.3793 138.639 38.65 139.04C38.9207 139.441 39.0793 139.922 39.126 140.482H38.104C38.048 139.922 37.8333 139.488 37.46 139.18C37.0867 138.863 36.5873 138.704 35.962 138.704C35.262 138.704 34.6973 138.872 34.268 139.208C33.8387 139.544 33.624 139.997 33.624 140.566C33.624 141.005 33.7547 141.369 34.016 141.658C34.2773 141.938 34.6693 142.143 35.192 142.274L36.914 142.694C37.698 142.881 38.2907 143.198 38.692 143.646C39.0933 144.085 39.294 144.645 39.294 145.326C39.294 145.895 39.154 146.395 38.874 146.824C38.594 147.253 38.1973 147.585 37.684 147.818C37.1707 148.051 36.5687 148.168 35.878 148.168C35.234 148.168 34.66 148.061 34.156 147.846C33.6613 147.631 33.2693 147.323 32.98 146.922C32.7 146.521 32.5367 146.049 32.49 145.508H33.526C33.554 146.04 33.7827 146.465 34.212 146.782C34.6413 147.09 35.1967 147.244 35.878 147.244C36.6153 147.244 37.1987 147.076 37.628 146.74C38.0667 146.404 38.286 145.951 38.286 145.382C38.286 144.925 38.1553 144.556 37.894 144.276C37.642 143.987 37.2453 143.777 36.704 143.646L35.01 143.226C34.226 143.039 33.6287 142.727 33.218 142.288C32.8167 141.84 32.616 141.271 32.616 140.58ZM40.1407 141.224H43.8087V142.036H40.1407V141.224ZM42.4507 148H41.4987V139.082H42.4507V148ZM46.9032 148.168C46.1846 148.168 45.6199 147.981 45.2092 147.608C44.8079 147.235 44.6072 146.754 44.6072 146.166C44.6072 145.541 44.8312 145.041 45.2792 144.668C45.7272 144.295 46.3479 144.075 47.1412 144.01L49.3812 143.828V143.604C49.3812 143.156 49.3019 142.806 49.1432 142.554C48.9846 142.293 48.7699 142.111 48.4992 142.008C48.2286 141.905 47.9252 141.854 47.5892 141.854C46.9919 141.854 46.5299 141.98 46.2032 142.232C45.8766 142.484 45.7132 142.839 45.7132 143.296H44.8312C44.8312 142.839 44.9479 142.442 45.1812 142.106C45.4146 141.77 45.7412 141.509 46.1612 141.322C46.5812 141.135 47.0666 141.042 47.6172 141.042C48.1492 141.042 48.6159 141.135 49.0172 141.322C49.4186 141.499 49.7359 141.779 49.9692 142.162C50.2119 142.535 50.3332 143.021 50.3332 143.618V148H49.5212L49.3952 146.81C49.1899 147.239 48.8632 147.575 48.4152 147.818C47.9766 148.051 47.4726 148.168 46.9032 148.168ZM47.1272 147.384C47.8459 147.384 48.4012 147.155 48.7932 146.698C49.1852 146.241 49.3812 145.648 49.3812 144.92V144.556L47.3792 144.71C46.7446 144.766 46.2872 144.925 46.0072 145.186C45.7272 145.447 45.5872 145.765 45.5872 146.138C45.5872 146.549 45.7272 146.861 46.0072 147.076C46.2872 147.281 46.6606 147.384 47.1272 147.384ZM55.8137 141.14V142.008H55.2817C54.6563 142.008 54.157 142.199 53.7837 142.582C53.4197 142.965 53.2377 143.483 53.2377 144.136V148H52.2717V141.224H53.1817L53.2657 142.554H53.1677C53.261 142.115 53.4897 141.761 53.8537 141.49C54.2177 141.21 54.661 141.07 55.1837 141.07C55.2863 141.07 55.389 141.075 55.4917 141.084C55.5943 141.093 55.7017 141.112 55.8137 141.14ZM56.6153 141.224H60.2833V142.036H56.6153V141.224ZM58.9253 148H57.9733V139.082H58.9253V148Z" fill="#223300"/>
<rect x="32" y="160" width="326" height="66" rx="8" fill="#577A01"/>
<rect x="40" y="168" width="50" height="50" rx="8" fill="#93C91E"/>
<rect x="98" y="168" width="50" height="50" rx="8" fill="#93C91E"/>
<rect x="156" y="168" width="50" height="50" rx="8" fill="#93C91E"/>
<path d="M37.306 261.154C36.3727 261.154 35.5513 260.939 34.842 260.51C34.142 260.071 33.5913 259.465 33.19 258.69C32.798 257.915 32.602 257.015 32.602 255.988C32.602 254.961 32.8027 254.061 33.204 253.286C33.6053 252.502 34.1653 251.895 34.884 251.466C35.6027 251.027 36.4287 250.808 37.362 250.808C38.09 250.808 38.748 250.943 39.336 251.214C39.924 251.485 40.4187 251.867 40.82 252.362C41.2213 252.847 41.4873 253.426 41.618 254.098H40.54C40.3253 253.37 39.9333 252.801 39.364 252.39C38.7947 251.979 38.1133 251.774 37.32 251.774C36.592 251.774 35.948 251.951 35.388 252.306C34.8373 252.651 34.408 253.141 34.1 253.776C33.8013 254.401 33.652 255.139 33.652 255.988C33.652 256.819 33.806 257.551 34.114 258.186C34.422 258.821 34.8513 259.315 35.402 259.67C35.9527 260.015 36.592 260.188 37.32 260.188C38.1133 260.188 38.804 259.987 39.392 259.586C39.98 259.185 40.3813 258.653 40.596 257.99H41.674C41.5247 258.615 41.24 259.166 40.82 259.642C40.4093 260.118 39.9007 260.491 39.294 260.762C38.6873 261.023 38.0247 261.154 37.306 261.154ZM46.0492 261.168C45.3959 261.168 44.8172 261.019 44.3132 260.72C43.8186 260.421 43.4312 260.006 43.1512 259.474C42.8712 258.942 42.7312 258.321 42.7312 257.612C42.7312 256.912 42.8666 256.296 43.1372 255.764C43.4172 255.223 43.7999 254.803 44.2852 254.504C44.7706 254.196 45.3352 254.042 45.9792 254.042C46.5952 254.042 47.1319 254.177 47.5892 254.448C48.0559 254.719 48.4152 255.097 48.6672 255.582C48.9286 256.058 49.0592 256.618 49.0592 257.262V257.738H43.2632L43.2912 257.038H48.0932C48.0932 256.385 47.8972 255.862 47.5052 255.47C47.1226 255.069 46.6139 254.868 45.9792 254.868C45.5126 254.868 45.1019 254.975 44.7472 255.19C44.4019 255.405 44.1359 255.713 43.9492 256.114C43.7626 256.506 43.6692 256.973 43.6692 257.514C43.6692 258.41 43.8746 259.105 44.2852 259.6C44.7052 260.095 45.2979 260.342 46.0632 260.342C46.6139 260.342 47.0666 260.225 47.4212 259.992C47.7759 259.759 48.0139 259.418 48.1352 258.97H49.0592C48.8819 259.679 48.5366 260.225 48.0232 260.608C47.5099 260.981 46.8519 261.168 46.0492 261.168ZM51.5697 261H50.6037V254.224H51.4437L51.5837 255.4C51.8077 254.971 52.125 254.639 52.5357 254.406C52.9557 254.163 53.413 254.042 53.9077 254.042C54.841 254.042 55.513 254.299 55.9237 254.812C56.3344 255.325 56.5397 256.007 56.5397 256.856V261H55.5737V257.066C55.5737 256.273 55.4057 255.717 55.0697 255.4C54.743 255.083 54.2997 254.924 53.7397 254.924C53.049 254.924 52.5124 255.157 52.1297 255.624C51.7564 256.081 51.5697 256.693 51.5697 257.458V261ZM57.709 254.224H61.377V255.036H57.709V254.224ZM60.019 261H59.067V252.082H60.019V261ZM65.4086 261.168C64.7553 261.168 64.1766 261.019 63.6726 260.72C63.1779 260.421 62.7906 260.006 62.5106 259.474C62.2306 258.942 62.0906 258.321 62.0906 257.612C62.0906 256.912 62.2259 256.296 62.4966 255.764C62.7766 255.223 63.1593 254.803 63.6446 254.504C64.1299 254.196 64.6946 254.042 65.3386 254.042C65.9546 254.042 66.4913 254.177 66.9486 254.448C67.4153 254.719 67.7746 255.097 68.0266 255.582C68.2879 256.058 68.4186 256.618 68.4186 257.262V257.738H62.6226L62.6506 257.038H67.4526C67.4526 256.385 67.2566 255.862 66.8646 255.47C66.4819 255.069 65.9733 254.868 65.3386 254.868C64.8719 254.868 64.4613 254.975 64.1066 255.19C63.7613 255.405 63.4953 255.713 63.3086 256.114C63.1219 256.506 63.0286 256.973 63.0286 257.514C63.0286 258.41 63.2339 259.105 63.6446 259.6C64.0646 260.095 64.6573 260.342 65.4226 260.342C65.9733 260.342 66.4259 260.225 66.7806 259.992C67.1353 259.759 67.3733 259.418 67.4946 258.97H68.4186C68.2413 259.679 67.8959 260.225 67.3826 260.608C66.8693 260.981 66.2113 261.168 65.4086 261.168ZM73.5051 254.14V255.008H72.9731C72.3477 255.008 71.8484 255.199 71.4751 255.582C71.1111 255.965 70.9291 256.483 70.9291 257.136V261H69.9631V254.224H70.8731L70.9571 255.554H70.8591C70.9524 255.115 71.1811 254.761 71.5451 254.49C71.9091 254.21 72.3524 254.07 72.8751 254.07C72.9777 254.07 73.0804 254.075 73.1831 254.084C73.2857 254.093 73.3931 254.112 73.5051 254.14Z" fill="#223300"/>
<rect x="32" y="273" width="326" height="66" rx="8" fill="#577A01"/>
<rect x="112" y="281" width="50" height="50" rx="8" fill="#93C91E"/>
<rect x="170" y="281" width="50" height="50" rx="8" fill="#93C91E"/>
<rect x="228" y="281" width="50" height="50" rx="8" fill="#93C91E"/>
<path d="M39.224 374H33.218V363.976H39.21V364.9H33.596L34.226 364.354V368.512H38.748V369.422H34.226V373.622L33.596 373.076H39.224V374ZM42.0267 374H41.0607V367.224H41.9007L42.0407 368.4C42.2647 367.971 42.5821 367.639 42.9927 367.406C43.4127 367.163 43.8701 367.042 44.3647 367.042C45.2981 367.042 45.9701 367.299 46.3807 367.812C46.7914 368.325 46.9967 369.007 46.9967 369.856V374H46.0307V370.066C46.0307 369.273 45.8627 368.717 45.5267 368.4C45.2001 368.083 44.7567 367.924 44.1967 367.924C43.5061 367.924 42.9694 368.157 42.5867 368.624C42.2134 369.081 42.0267 369.693 42.0267 370.458V374ZM51.5821 374.168C50.9287 374.168 50.3687 374.014 49.9021 373.706C49.4354 373.398 49.0761 372.978 48.8241 372.446C48.5721 371.905 48.4461 371.298 48.4461 370.626C48.4461 369.945 48.5721 369.333 48.8241 368.792C49.0761 368.251 49.4354 367.826 49.9021 367.518C50.3781 367.201 50.9521 367.042 51.6241 367.042C52.1841 367.042 52.6787 367.163 53.1081 367.406C53.5467 367.649 53.8827 368.017 54.1161 368.512V363.794H55.0821V374H54.2421L54.1441 372.614C53.9014 373.137 53.5561 373.529 53.1081 373.79C52.6601 374.042 52.1514 374.168 51.5821 374.168ZM51.7501 373.286C52.2541 373.286 52.6787 373.174 53.0241 372.95C53.3694 372.717 53.6354 372.399 53.8221 371.998C54.0087 371.587 54.1021 371.121 54.1021 370.598C54.1021 370.075 54.0087 369.613 53.8221 369.212C53.6354 368.811 53.3694 368.493 53.0241 368.26C52.6787 368.027 52.2541 367.91 51.7501 367.91C51.2647 367.91 50.8447 368.027 50.4901 368.26C50.1447 368.493 49.8787 368.811 49.6921 369.212C49.5147 369.613 49.4261 370.075 49.4261 370.598C49.4261 371.121 49.5147 371.587 49.6921 371.998C49.8787 372.399 50.1447 372.717 50.4901 372.95C50.8447 373.174 51.2647 373.286 51.7501 373.286Z" fill="#223300"/>
<rect x="32" y="386" width="326" height="66" rx="8" fill="#577A01"/>
<rect x="184" y="394" width="50" height="50" rx="8" fill="#93C91E"/>
<rect x="242" y="394" width="50" height="50" rx="8" fill="#93C91E"/>
<rect x="300" y="394" width="50" height="50" rx="8" fill="#93C91E"/>
<path d="M512.56 112L508.16 100.432H509.84L512.656 107.824C512.784 108.144 512.907 108.48 513.024 108.832C513.141 109.173 513.259 109.563 513.376 110C513.515 109.541 513.648 109.125 513.776 108.752C513.904 108.379 514.016 108.064 514.112 107.808L516.912 100.432H518.544L514.192 112H512.56ZM521.902 112.192C521.144 112.192 520.472 112.021 519.886 111.68C519.299 111.328 518.84 110.848 518.51 110.24C518.179 109.621 518.014 108.907 518.014 108.096C518.014 107.275 518.174 106.555 518.493 105.936C518.824 105.317 519.272 104.832 519.838 104.48C520.414 104.128 521.08 103.952 521.838 103.952C522.584 103.952 523.23 104.112 523.774 104.432C524.328 104.752 524.755 105.2 525.054 105.776C525.363 106.352 525.517 107.029 525.517 107.808V108.368L518.814 108.384L518.846 107.376H524.014C524.014 106.725 523.816 106.203 523.422 105.808C523.027 105.413 522.499 105.216 521.838 105.216C521.336 105.216 520.904 105.328 520.542 105.552C520.19 105.765 519.918 106.085 519.726 106.512C519.544 106.928 519.454 107.429 519.454 108.016C519.454 108.955 519.667 109.68 520.094 110.192C520.52 110.693 521.134 110.944 521.934 110.944C522.52 110.944 523 110.827 523.374 110.592C523.747 110.357 523.998 110.016 524.126 109.568H525.534C525.342 110.4 524.931 111.045 524.302 111.504C523.672 111.963 522.872 112.192 521.902 112.192ZM531.677 104.112V105.488H531.005C530.291 105.488 529.725 105.696 529.309 106.112C528.904 106.517 528.701 107.099 528.701 107.856V112H527.197V104.192H528.605L528.733 105.76H528.589C528.696 105.248 528.952 104.832 529.357 104.512C529.763 104.181 530.269 104.016 530.877 104.016C531.016 104.016 531.144 104.027 531.261 104.048C531.389 104.059 531.528 104.08 531.677 104.112ZM532.569 104.176H537.145V105.44H532.569V104.176ZM535.609 112H534.105V101.728H535.609V112ZM538.494 112V104.176H539.998V112H538.494ZM539.23 102.32C538.964 102.32 538.729 102.224 538.526 102.032C538.334 101.829 538.238 101.595 538.238 101.328C538.238 101.051 538.334 100.816 538.526 100.624C538.729 100.432 538.964 100.336 539.23 100.336C539.508 100.336 539.742 100.432 539.934 100.624C540.126 100.816 540.222 101.051 540.222 101.328C540.222 101.595 540.126 101.829 539.934 102.032C539.742 102.224 539.508 102.32 539.23 102.32ZM541.67 108.096C541.67 107.275 541.83 106.555 542.15 105.936C542.48 105.317 542.934 104.832 543.51 104.48C544.086 104.128 544.752 103.952 545.51 103.952C546.491 103.952 547.307 104.213 547.958 104.736C548.608 105.259 548.998 105.952 549.126 106.816H547.622C547.494 106.315 547.243 105.936 546.87 105.68C546.496 105.424 546.059 105.296 545.558 105.296C545.088 105.296 544.672 105.413 544.31 105.648C543.947 105.872 543.664 106.192 543.462 106.608C543.259 107.024 543.158 107.515 543.158 108.08C543.158 108.645 543.254 109.136 543.446 109.552C543.638 109.957 543.91 110.277 544.262 110.512C544.614 110.736 545.024 110.848 545.494 110.848C546.027 110.848 546.486 110.715 546.87 110.448C547.254 110.181 547.51 109.819 547.638 109.36H549.142C549.046 109.925 548.827 110.421 548.486 110.848C548.155 111.264 547.728 111.595 547.206 111.84C546.694 112.075 546.123 112.192 545.494 112.192C544.726 112.192 544.054 112.021 543.478 111.68C542.912 111.339 542.47 110.864 542.15 110.256C541.83 109.637 541.67 108.917 541.67 108.096ZM553.017 112.192C552.185 112.192 551.529 111.973 551.049 111.536C550.579 111.099 550.345 110.528 550.345 109.824C550.345 109.109 550.601 108.539 551.113 108.112C551.625 107.675 552.339 107.419 553.257 107.344L555.721 107.152V106.928C555.721 106.491 555.641 106.144 555.481 105.888C555.321 105.621 555.102 105.435 554.825 105.328C554.547 105.211 554.233 105.152 553.881 105.152C553.251 105.152 552.761 105.285 552.409 105.552C552.067 105.808 551.897 106.176 551.897 106.656H550.585C550.585 106.112 550.723 105.637 551.001 105.232C551.278 104.827 551.667 104.512 552.169 104.288C552.681 104.064 553.273 103.952 553.945 103.952C554.595 103.952 555.161 104.069 555.641 104.304C556.131 104.528 556.51 104.875 556.777 105.344C557.054 105.803 557.193 106.384 557.193 107.088V112H555.913L555.753 110.736C555.55 111.184 555.198 111.541 554.697 111.808C554.206 112.064 553.646 112.192 553.017 112.192ZM553.449 111.024C554.163 111.024 554.723 110.811 555.129 110.384C555.534 109.947 555.737 109.36 555.737 108.624V108.208L553.737 108.368C553.075 108.432 552.595 108.587 552.297 108.832C552.009 109.077 551.865 109.392 551.865 109.776C551.865 110.192 552.003 110.507 552.281 110.72C552.569 110.923 552.958 111.024 553.449 111.024ZM560.812 112H559.308V100.224H560.812V112ZM568.937 112H567.433V100.224H568.937V112ZM573.439 112.192C572.607 112.192 571.951 111.973 571.471 111.536C571.001 111.099 570.767 110.528 570.767 109.824C570.767 109.109 571.023 108.539 571.535 108.112C572.047 107.675 572.761 107.419 573.679 107.344L576.143 107.152V106.928C576.143 106.491 576.063 106.144 575.903 105.888C575.743 105.621 575.524 105.435 575.247 105.328C574.969 105.211 574.655 105.152 574.303 105.152C573.673 105.152 573.183 105.285 572.831 105.552C572.489 105.808 572.319 106.176 572.319 106.656H571.007C571.007 106.112 571.145 105.637 571.423 105.232C571.7 104.827 572.089 104.512 572.591 104.288C573.103 104.064 573.695 103.952 574.367 103.952C575.017 103.952 575.583 104.069 576.063 104.304C576.553 104.528 576.932 104.875 577.199 105.344C577.476 105.803 577.615 106.384 577.615 107.088V112H576.335L576.175 110.736C575.972 111.184 575.62 111.541 575.119 111.808C574.628 112.064 574.068 112.192 573.439 112.192ZM573.871 111.024C574.585 111.024 575.145 110.811 575.551 110.384C575.956 109.947 576.159 109.36 576.159 108.624V108.208L574.159 108.368C573.497 108.432 573.017 108.587 572.719 108.832C572.431 109.077 572.287 109.392 572.287 109.776C572.287 110.192 572.425 110.507 572.703 110.72C572.991 110.923 573.38 111.024 573.871 111.024ZM580.134 104.176L582.886 111.792L581.958 113.072L578.55 104.176H580.134ZM578.758 115.504V114.272H579.766C580.011 114.272 580.235 114.245 580.438 114.192C580.641 114.149 580.827 114.048 580.998 113.888C581.169 113.739 581.313 113.499 581.43 113.168L584.726 104.176H586.278L582.582 113.76C582.315 114.432 581.979 114.917 581.574 115.216C581.169 115.515 580.667 115.664 580.07 115.664C579.825 115.664 579.595 115.648 579.382 115.616C579.169 115.595 578.961 115.557 578.758 115.504ZM586.654 108.08C586.654 107.28 586.83 106.571 587.182 105.952C587.534 105.333 588.014 104.848 588.622 104.496C589.241 104.144 589.945 103.968 590.734 103.968C591.523 103.968 592.222 104.144 592.83 104.496C593.438 104.848 593.918 105.333 594.27 105.952C594.622 106.571 594.798 107.28 594.798 108.08C594.798 108.88 594.622 109.589 594.27 110.208C593.918 110.827 593.438 111.312 592.83 111.664C592.222 112.016 591.523 112.192 590.734 112.192C589.945 112.192 589.241 112.016 588.622 111.664C588.014 111.312 587.534 110.827 587.182 110.208C586.83 109.589 586.654 108.88 586.654 108.08ZM588.174 108.08C588.174 108.624 588.281 109.104 588.494 109.52C588.718 109.936 589.022 110.261 589.406 110.496C589.79 110.731 590.233 110.848 590.734 110.848C591.235 110.848 591.678 110.731 592.062 110.496C592.446 110.261 592.745 109.936 592.958 109.52C593.182 109.104 593.294 108.624 593.294 108.08C593.294 107.525 593.182 107.045 592.958 106.64C592.745 106.224 592.446 105.899 592.062 105.664C591.678 105.429 591.235 105.312 590.734 105.312C590.233 105.312 589.79 105.429 589.406 105.664C589.022 105.899 588.718 106.224 588.494 106.64C588.281 107.045 588.174 107.525 588.174 108.08ZM601.684 104.176H603.172V112H601.828L601.668 110.816C601.444 111.221 601.092 111.552 600.612 111.808C600.132 112.064 599.604 112.192 599.028 112.192C598.121 112.192 597.417 111.909 596.916 111.344C596.425 110.768 596.18 110 596.18 109.04V104.176H597.684V108.544C597.684 109.376 597.849 109.973 598.18 110.336C598.521 110.688 598.98 110.864 599.556 110.864C600.249 110.864 600.777 110.651 601.14 110.224C601.502 109.787 601.684 109.147 601.684 108.304V104.176ZM604.522 104.176H609.098V105.44H604.522V104.176ZM607.562 112H606.058V101.728H607.562V112ZM609.807 109.728H611.247C611.247 110.123 611.391 110.437 611.679 110.672C611.967 110.896 612.357 111.008 612.847 111.008C613.381 111.008 613.791 110.907 614.079 110.704C614.367 110.491 614.511 110.208 614.511 109.856C614.511 109.6 614.431 109.387 614.271 109.216C614.122 109.045 613.845 108.907 613.439 108.8L612.063 108.48C611.37 108.309 610.853 108.048 610.511 107.696C610.181 107.344 610.015 106.88 610.015 106.304C610.015 105.824 610.138 105.408 610.383 105.056C610.639 104.704 610.986 104.432 611.423 104.24C611.871 104.048 612.383 103.952 612.959 103.952C613.535 103.952 614.031 104.053 614.447 104.256C614.874 104.459 615.205 104.741 615.439 105.104C615.685 105.467 615.813 105.899 615.823 106.4H614.383C614.373 105.995 614.239 105.68 613.983 105.456C613.727 105.232 613.37 105.12 612.911 105.12C612.442 105.12 612.079 105.221 611.823 105.424C611.567 105.627 611.439 105.904 611.439 106.256C611.439 106.779 611.823 107.136 612.591 107.328L613.967 107.664C614.629 107.813 615.125 108.059 615.455 108.4C615.786 108.731 615.951 109.184 615.951 109.76C615.951 110.251 615.818 110.683 615.551 111.056C615.285 111.419 614.917 111.701 614.447 111.904C613.989 112.096 613.445 112.192 612.815 112.192C611.898 112.192 611.167 111.968 610.623 111.52C610.079 111.072 609.807 110.475 609.807 109.728Z" fill="#344B00"/>
<path d="M508.616 140.58C508.616 140.02 508.756 139.535 509.036 139.124C509.316 138.704 509.708 138.377 510.212 138.144C510.716 137.911 511.304 137.794 511.976 137.794C512.583 137.794 513.11 137.901 513.558 138.116C514.015 138.331 514.379 138.639 514.65 139.04C514.921 139.441 515.079 139.922 515.126 140.482H514.104C514.048 139.922 513.833 139.488 513.46 139.18C513.087 138.863 512.587 138.704 511.962 138.704C511.262 138.704 510.697 138.872 510.268 139.208C509.839 139.544 509.624 139.997 509.624 140.566C509.624 141.005 509.755 141.369 510.016 141.658C510.277 141.938 510.669 142.143 511.192 142.274L512.914 142.694C513.698 142.881 514.291 143.198 514.692 143.646C515.093 144.085 515.294 144.645 515.294 145.326C515.294 145.895 515.154 146.395 514.874 146.824C514.594 147.253 514.197 147.585 513.684 147.818C513.171 148.051 512.569 148.168 511.878 148.168C511.234 148.168 510.66 148.061 510.156 147.846C509.661 147.631 509.269 147.323 508.98 146.922C508.7 146.521 508.537 146.049 508.49 145.508H509.526C509.554 146.04 509.783 146.465 510.212 146.782C510.641 147.09 511.197 147.244 511.878 147.244C512.615 147.244 513.199 147.076 513.628 146.74C514.067 146.404 514.286 145.951 514.286 145.382C514.286 144.925 514.155 144.556 513.894 144.276C513.642 143.987 513.245 143.777 512.704 143.646L511.01 143.226C510.226 143.039 509.629 142.727 509.218 142.288C508.817 141.84 508.616 141.271 508.616 140.58ZM516.141 141.224H519.809V142.036H516.141V141.224ZM518.451 148H517.499V139.082H518.451V148ZM522.903 148.168C522.185 148.168 521.62 147.981 521.209 147.608C520.808 147.235 520.607 146.754 520.607 146.166C520.607 145.541 520.831 145.041 521.279 144.668C521.727 144.295 522.348 144.075 523.141 144.01L525.381 143.828V143.604C525.381 143.156 525.302 142.806 525.143 142.554C524.985 142.293 524.77 142.111 524.499 142.008C524.229 141.905 523.925 141.854 523.589 141.854C522.992 141.854 522.53 141.98 522.203 142.232C521.877 142.484 521.713 142.839 521.713 143.296H520.831C520.831 142.839 520.948 142.442 521.181 142.106C521.415 141.77 521.741 141.509 522.161 141.322C522.581 141.135 523.067 141.042 523.617 141.042C524.149 141.042 524.616 141.135 525.017 141.322C525.419 141.499 525.736 141.779 525.969 142.162C526.212 142.535 526.333 143.021 526.333 143.618V148H525.521L525.395 146.81C525.19 147.239 524.863 147.575 524.415 147.818C523.977 148.051 523.473 148.168 522.903 148.168ZM523.127 147.384C523.846 147.384 524.401 147.155 524.793 146.698C525.185 146.241 525.381 145.648 525.381 144.92V144.556L523.379 144.71C522.745 144.766 522.287 144.925 522.007 145.186C521.727 145.447 521.587 145.765 521.587 146.138C521.587 146.549 521.727 146.861 522.007 147.076C522.287 147.281 522.661 147.384 523.127 147.384ZM531.814 141.14V142.008H531.282C530.656 142.008 530.157 142.199 529.784 142.582C529.42 142.965 529.238 143.483 529.238 144.136V148H528.272V141.224H529.182L529.266 142.554H529.168C529.261 142.115 529.49 141.761 529.854 141.49C530.218 141.21 530.661 141.07 531.184 141.07C531.286 141.07 531.389 141.075 531.492 141.084C531.594 141.093 531.702 141.112 531.814 141.14ZM532.615 141.224H536.283V142.036H532.615V141.224ZM534.925 148H533.973V139.082H534.925V148Z" fill="#223300"/>
<rect x="508" y="160" width="66" height="292" rx="8" fill="#577A01"/>
<rect x="516" y="168" width="50" height="50" rx="8" fill="#93C91E"/>
<rect x="516" y="226" width="50" height="50" rx="8" fill="#93C91E"/>
<rect x="516" y="284" width="50" height="50" rx="8" fill="#93C91E"/>
<path d="M599.306 148.154C598.373 148.154 597.551 147.939 596.842 147.51C596.142 147.071 595.591 146.465 595.19 145.69C594.798 144.915 594.602 144.015 594.602 142.988C594.602 141.961 594.803 141.061 595.204 140.286C595.605 139.502 596.165 138.895 596.884 138.466C597.603 138.027 598.429 137.808 599.362 137.808C600.09 137.808 600.748 137.943 601.336 138.214C601.924 138.485 602.419 138.867 602.82 139.362C603.221 139.847 603.487 140.426 603.618 141.098H602.54C602.325 140.37 601.933 139.801 601.364 139.39C600.795 138.979 600.113 138.774 599.32 138.774C598.592 138.774 597.948 138.951 597.388 139.306C596.837 139.651 596.408 140.141 596.1 140.776C595.801 141.401 595.652 142.139 595.652 142.988C595.652 143.819 595.806 144.551 596.114 145.186C596.422 145.821 596.851 146.315 597.402 146.67C597.953 147.015 598.592 147.188 599.32 147.188C600.113 147.188 600.804 146.987 601.392 146.586C601.98 146.185 602.381 145.653 602.596 144.99H603.674C603.525 145.615 603.24 146.166 602.82 146.642C602.409 147.118 601.901 147.491 601.294 147.762C600.687 148.023 600.025 148.154 599.306 148.154ZM608.049 148.168C607.396 148.168 606.817 148.019 606.313 147.72C605.819 147.421 605.431 147.006 605.151 146.474C604.871 145.942 604.731 145.321 604.731 144.612C604.731 143.912 604.867 143.296 605.137 142.764C605.417 142.223 605.8 141.803 606.285 141.504C606.771 141.196 607.335 141.042 607.979 141.042C608.595 141.042 609.132 141.177 609.589 141.448C610.056 141.719 610.415 142.097 610.667 142.582C610.929 143.058 611.059 143.618 611.059 144.262V144.738H605.263L605.291 144.038H610.093C610.093 143.385 609.897 142.862 609.505 142.47C609.123 142.069 608.614 141.868 607.979 141.868C607.513 141.868 607.102 141.975 606.747 142.19C606.402 142.405 606.136 142.713 605.949 143.114C605.763 143.506 605.669 143.973 605.669 144.514C605.669 145.41 605.875 146.105 606.285 146.6C606.705 147.095 607.298 147.342 608.063 147.342C608.614 147.342 609.067 147.225 609.421 146.992C609.776 146.759 610.014 146.418 610.135 145.97H611.059C610.882 146.679 610.537 147.225 610.023 147.608C609.51 147.981 608.852 148.168 608.049 148.168ZM613.57 148H612.604V141.224H613.444L613.584 142.4C613.808 141.971 614.125 141.639 614.536 141.406C614.956 141.163 615.413 141.042 615.908 141.042C616.841 141.042 617.513 141.299 617.924 141.812C618.334 142.325 618.54 143.007 618.54 143.856V148H617.574V144.066C617.574 143.273 617.406 142.717 617.07 142.4C616.743 142.083 616.3 141.924 615.74 141.924C615.049 141.924 614.512 142.157 614.13 142.624C613.756 143.081 613.57 143.693 613.57 144.458V148ZM619.709 141.224H623.377V142.036H619.709V141.224ZM622.019 148H621.067V139.082H622.019V148ZM627.409 148.168C626.755 148.168 626.177 148.019 625.673 147.72C625.178 147.421 624.791 147.006 624.511 146.474C624.231 145.942 624.091 145.321 624.091 144.612C624.091 143.912 624.226 143.296 624.497 142.764C624.777 142.223 625.159 141.803 625.645 141.504C626.13 141.196 626.695 141.042 627.339 141.042C627.955 141.042 628.491 141.177 628.949 141.448C629.415 141.719 629.775 142.097 630.027 142.582C630.288 143.058 630.419 143.618 630.419 144.262V144.738H624.623L624.651 144.038H629.453C629.453 143.385 629.257 142.862 628.865 142.47C628.482 142.069 627.973 141.868 627.339 141.868C626.872 141.868 626.461 141.975 626.107 142.19C625.761 142.405 625.495 142.713 625.309 143.114C625.122 143.506 625.029 143.973 625.029 144.514C625.029 145.41 625.234 146.105 625.645 146.6C626.065 147.095 626.657 147.342 627.423 147.342C627.973 147.342 628.426 147.225 628.781 146.992C629.135 146.759 629.373 146.418 629.495 145.97H630.419C630.241 146.679 629.896 147.225 629.383 147.608C628.869 147.981 628.211 148.168 627.409 148.168ZM635.505 141.14V142.008H634.973C634.348 142.008 633.848 142.199 633.475 142.582C633.111 142.965 632.929 143.483 632.929 144.136V148H631.963V141.224H632.873L632.957 142.554H632.859C632.952 142.115 633.181 141.761 633.545 141.49C633.909 141.21 634.352 141.07 634.875 141.07C634.978 141.07 635.08 141.075 635.183 141.084C635.286 141.093 635.393 141.112 635.505 141.14Z" fill="#223300"/>
<rect x="594" y="160" width="66" height="292" rx="8" fill="#577A01"/>
<rect x="602" y="223" width="50" height="50" rx="8" fill="#93C91E"/>
<rect x="602" y="281" width="50" height="50" rx="8" fill="#93C91E"/>
<rect x="602" y="339" width="50" height="50" rx="8" fill="#93C91E"/>
<path d="M687.224 148H681.218V137.976H687.21V138.9H681.596L682.226 138.354V142.512H686.748V143.422H682.226V147.622L681.596 147.076H687.224V148ZM690.027 148H689.061V141.224H689.901L690.041 142.4C690.265 141.971 690.582 141.639 690.993 141.406C691.413 141.163 691.87 141.042 692.365 141.042C693.298 141.042 693.97 141.299 694.381 141.812C694.791 142.325 694.997 143.007 694.997 143.856V148H694.031V144.066C694.031 143.273 693.863 142.717 693.527 142.4C693.2 142.083 692.757 141.924 692.197 141.924C691.506 141.924 690.969 142.157 690.587 142.624C690.213 143.081 690.027 143.693 690.027 144.458V148ZM699.582 148.168C698.929 148.168 698.369 148.014 697.902 147.706C697.435 147.398 697.076 146.978 696.824 146.446C696.572 145.905 696.446 145.298 696.446 144.626C696.446 143.945 696.572 143.333 696.824 142.792C697.076 142.251 697.435 141.826 697.902 141.518C698.378 141.201 698.952 141.042 699.624 141.042C700.184 141.042 700.679 141.163 701.108 141.406C701.547 141.649 701.883 142.017 702.116 142.512V137.794H703.082V148H702.242L702.144 146.614C701.901 147.137 701.556 147.529 701.108 147.79C700.66 148.042 700.151 148.168 699.582 148.168ZM699.75 147.286C700.254 147.286 700.679 147.174 701.024 146.95C701.369 146.717 701.635 146.399 701.822 145.998C702.009 145.587 702.102 145.121 702.102 144.598C702.102 144.075 702.009 143.613 701.822 143.212C701.635 142.811 701.369 142.493 701.024 142.26C700.679 142.027 700.254 141.91 699.75 141.91C699.265 141.91 698.845 142.027 698.49 142.26C698.145 142.493 697.879 142.811 697.692 143.212C697.515 143.613 697.426 144.075 697.426 144.598C697.426 145.121 697.515 145.587 697.692 145.998C697.879 146.399 698.145 146.717 698.49 146.95C698.845 147.174 699.265 147.286 699.75 147.286Z" fill="#223300"/>
<rect x="680" y="160" width="66" height="292" rx="8" fill="#577A01"/>
<rect x="688" y="278" width="50" height="50" rx="8" fill="#93C91E"/>
<rect x="688" y="336" width="50" height="50" rx="8" fill="#93C91E"/>
<rect x="688" y="394" width="50" height="50" rx="8" fill="#93C91E"/>
</svg>
