<svg width="828" height="525" viewBox="0 0 828 525" fill="none" xmlns="http://www.w3.org/2000/svg">
<rect width="828" height="525" fill="#DEF4C6"/>
<path d="M39.86 50H37.22L42.5 35.38H45.12L50.4 50H47.7L46.52 46.62H41.06L39.86 50ZM43.48 39.74L41.8 44.46H45.78L44.1 39.74C44.0467 39.54 43.9867 39.34 43.92 39.14C43.8533 38.94 43.8133 38.7667 43.8 38.62C43.7733 38.7533 43.7267 38.9267 43.66 39.14C43.6067 39.34 43.5467 39.54 43.48 39.74ZM53.5933 50H50.8133L54.2133 45.16L50.8133 40.12H53.6533L55.8333 43.48L57.9333 40.12H60.6733L57.3133 45.14L60.5733 50H57.7733L55.6533 46.74L53.5933 50ZM62.1272 50V40.12H64.5672V50H62.1272ZM63.3272 38.14C62.9139 38.14 62.5605 38 62.2672 37.72C61.9872 37.4267 61.8472 37.0733 61.8472 36.66C61.8472 36.2467 61.9872 35.9 62.2672 35.62C62.5605 35.34 62.9139 35.2 63.3272 35.2C63.7405 35.2 64.0872 35.34 64.3672 35.62C64.6605 35.9 64.8072 36.2467 64.8072 36.66C64.8072 37.0733 64.6605 37.4267 64.3672 37.72C64.0872 38 63.7405 38.14 63.3272 38.14ZM66.3281 47H68.6481C68.6615 47.4267 68.8215 47.7667 69.1281 48.02C69.4348 48.2733 69.8615 48.4 70.4081 48.4C70.9948 48.4 71.4348 48.2933 71.7281 48.08C72.0348 47.8667 72.1881 47.58 72.1881 47.22C72.1881 46.98 72.1081 46.7667 71.9481 46.58C71.7881 46.3933 71.4881 46.2533 71.0481 46.16L69.2681 45.74C68.3748 45.54 67.7081 45.22 67.2681 44.78C66.8415 44.3267 66.6281 43.7067 66.6281 42.92C66.6281 42.28 66.7948 41.7267 67.1281 41.26C67.4748 40.7933 67.9415 40.44 68.5281 40.2C69.1148 39.9467 69.7881 39.82 70.5481 39.82C71.2815 39.82 71.9281 39.9533 72.4881 40.22C73.0481 40.4867 73.4815 40.86 73.7881 41.34C74.1081 41.82 74.2748 42.38 74.2881 43.02H71.9681C71.9681 42.5933 71.8348 42.26 71.5681 42.02C71.3015 41.7667 70.9281 41.64 70.4481 41.64C69.9681 41.64 69.5948 41.7467 69.3281 41.96C69.0615 42.1733 68.9281 42.46 68.9281 42.82C68.9281 43.3667 69.3548 43.74 70.2081 43.94L71.9881 44.36C72.8148 44.5467 73.4348 44.8467 73.8481 45.26C74.2748 45.6733 74.4881 46.26 74.4881 47.02C74.4881 47.6867 74.3148 48.2667 73.9681 48.76C73.6215 49.24 73.1348 49.6133 72.5081 49.88C71.8815 50.1333 71.1615 50.26 70.3481 50.26C69.1215 50.26 68.1415 49.96 67.4081 49.36C66.6881 48.76 66.3281 47.9733 66.3281 47ZM84.6766 50.26C83.6366 50.26 82.8099 49.98 82.1966 49.42C81.5966 48.8467 81.2966 48.1 81.2966 47.18C81.2966 46.2733 81.6099 45.5533 82.2366 45.02C82.8766 44.4733 83.7832 44.1533 84.9566 44.06L87.9166 43.82V43.6C87.9166 43.1467 87.8299 42.7867 87.6566 42.52C87.4966 42.24 87.2632 42.04 86.9566 41.92C86.6499 41.7867 86.2899 41.72 85.8766 41.72C85.1566 41.72 84.6032 41.8667 84.2166 42.16C83.8299 42.44 83.6366 42.84 83.6366 43.36H81.5566C81.5566 42.64 81.7366 42.02 82.0966 41.5C82.4699 40.9667 82.9899 40.5533 83.6566 40.26C84.3366 39.9667 85.1166 39.82 85.9966 39.82C86.8899 39.82 87.6566 39.98 88.2966 40.3C88.9366 40.6067 89.4299 41.0733 89.7766 41.7C90.1232 42.3133 90.2966 43.08 90.2966 44V50H88.1566L87.9766 48.54C87.7632 49.0467 87.3499 49.46 86.7366 49.78C86.1366 50.1 85.4499 50.26 84.6766 50.26ZM85.4566 48.42C86.2166 48.42 86.8166 48.2067 87.2566 47.78C87.7099 47.3533 87.9366 46.76 87.9366 46V45.48L85.8766 45.64C85.1166 45.7067 84.5766 45.8667 84.2566 46.12C83.9366 46.36 83.7766 46.68 83.7766 47.08C83.7766 47.52 83.9232 47.8533 84.2166 48.08C84.5099 48.3067 84.9232 48.42 85.4566 48.42ZM95.1536 50H92.7336V35.12H95.1536V50ZM97.7131 50V40.12H100.153V50H97.7131ZM98.9131 38.14C98.4998 38.14 98.1465 38 97.8531 37.72C97.5731 37.4267 97.4331 37.0733 97.4331 36.66C97.4331 36.2467 97.5731 35.9 97.8531 35.62C98.1465 35.34 98.4998 35.2 98.9131 35.2C99.3265 35.2 99.6731 35.34 99.9531 35.62C100.246 35.9 100.393 36.2467 100.393 36.66C100.393 37.0733 100.246 37.4267 99.9531 37.72C99.6731 38 99.3265 38.14 98.9131 38.14ZM102.114 44.84C102.114 43.88 102.307 43.0267 102.694 42.28C103.094 41.52 103.647 40.92 104.354 40.48C105.061 40.04 105.881 39.82 106.814 39.82C107.654 39.82 108.374 40.0067 108.974 40.38C109.574 40.74 109.994 41.2467 110.234 41.9L109.974 42.12L110.174 40.12H112.434V49.5C112.434 50.5933 112.221 51.54 111.794 52.34C111.381 53.1533 110.787 53.7733 110.014 54.2C109.254 54.64 108.334 54.86 107.254 54.86C105.841 54.86 104.681 54.48 103.774 53.72C102.867 52.96 102.334 51.92 102.174 50.6H104.614C104.694 51.24 104.961 51.74 105.414 52.1C105.881 52.46 106.494 52.64 107.254 52.64C108.094 52.64 108.761 52.3933 109.254 51.9C109.761 51.42 110.014 50.7667 110.014 49.94V47.48L110.294 47.74C110.054 48.3667 109.614 48.8667 108.974 49.24C108.334 49.6133 107.594 49.8 106.754 49.8C105.821 49.8 105.007 49.5867 104.314 49.16C103.621 48.7333 103.081 48.1467 102.694 47.4C102.307 46.6533 102.114 45.8 102.114 44.84ZM104.574 44.78C104.574 45.34 104.681 45.84 104.894 46.28C105.121 46.7067 105.434 47.0467 105.834 47.3C106.234 47.5533 106.701 47.68 107.234 47.68C107.794 47.68 108.274 47.56 108.674 47.32C109.087 47.0667 109.401 46.7267 109.614 46.3C109.841 45.86 109.954 45.3533 109.954 44.78C109.954 44.2067 109.847 43.7133 109.634 43.3C109.421 42.8733 109.107 42.54 108.694 42.3C108.294 42.06 107.807 41.94 107.234 41.94C106.687 41.94 106.214 42.0667 105.814 42.32C105.414 42.56 105.107 42.8933 104.894 43.32C104.681 43.7467 104.574 44.2333 104.574 44.78ZM117.399 50H114.959V40.12H117.219L117.419 41.4C117.726 40.9067 118.159 40.52 118.719 40.24C119.293 39.96 119.913 39.82 120.579 39.82C121.819 39.82 122.753 40.1867 123.379 40.92C124.019 41.6533 124.339 42.6533 124.339 43.92V50H121.899V44.5C121.899 43.6733 121.713 43.06 121.339 42.66C120.966 42.2467 120.459 42.04 119.819 42.04C119.059 42.04 118.466 42.28 118.039 42.76C117.613 43.24 117.399 43.88 117.399 44.68V50ZM129.177 50H126.737V40.12H128.977L129.277 41.88L128.997 41.64C129.197 41.16 129.563 40.74 130.097 40.38C130.63 40.0067 131.297 39.82 132.097 39.82C132.963 39.82 133.67 40.0467 134.217 40.5C134.777 40.9533 135.163 41.5533 135.377 42.3H134.977C135.123 41.5533 135.497 40.9533 136.097 40.5C136.71 40.0467 137.45 39.82 138.317 39.82C139.517 39.82 140.437 40.16 141.077 40.84C141.717 41.5067 142.037 42.4067 142.037 43.54V50H139.617V44.18C139.617 43.4733 139.437 42.94 139.077 42.58C138.73 42.2067 138.263 42.02 137.677 42.02C137.303 42.02 136.957 42.1067 136.637 42.28C136.33 42.4533 136.083 42.7133 135.897 43.06C135.71 43.4067 135.617 43.8533 135.617 44.4V50H133.177V44.16C133.177 43.4667 133.003 42.94 132.657 42.58C132.31 42.22 131.85 42.04 131.277 42.04C130.89 42.04 130.537 42.1267 130.217 42.3C129.897 42.46 129.643 42.72 129.457 43.08C129.27 43.4267 129.177 43.8667 129.177 44.4V50ZM148.852 50.26C147.879 50.26 147.012 50.04 146.252 49.6C145.505 49.1467 144.919 48.5333 144.492 47.76C144.065 46.9733 143.852 46.0733 143.852 45.06C143.852 44.0333 144.059 43.1267 144.472 42.34C144.885 41.5533 145.465 40.94 146.212 40.5C146.959 40.0467 147.812 39.82 148.772 39.82C149.772 39.82 150.632 40.0333 151.352 40.46C152.072 40.8733 152.625 41.4533 153.012 42.2C153.412 42.9467 153.612 43.84 153.612 44.88V45.62L145.132 45.64L145.172 44.08H151.192C151.192 43.4 150.972 42.8533 150.532 42.44C150.105 42.0267 149.525 41.82 148.792 41.82C148.219 41.82 147.732 41.94 147.332 42.18C146.945 42.42 146.652 42.78 146.452 43.26C146.252 43.74 146.152 44.3267 146.152 45.02C146.152 46.0867 146.379 46.8933 146.832 47.44C147.299 47.9867 147.985 48.26 148.892 48.26C149.559 48.26 150.105 48.1333 150.532 47.88C150.972 47.6267 151.259 47.2667 151.392 46.8H153.652C153.439 47.88 152.905 48.7267 152.052 49.34C151.212 49.9533 150.145 50.26 148.852 50.26ZM158.005 50H155.565V40.12H157.825L158.025 41.4C158.331 40.9067 158.765 40.52 159.325 40.24C159.898 39.96 160.518 39.82 161.185 39.82C162.425 39.82 163.358 40.1867 163.985 40.92C164.625 41.6533 164.945 42.6533 164.945 43.92V50H162.505V44.5C162.505 43.6733 162.318 43.06 161.945 42.66C161.571 42.2467 161.065 42.04 160.425 42.04C159.665 42.04 159.071 42.28 158.645 42.76C158.218 43.24 158.005 43.88 158.005 44.68V50ZM166.362 40.12H172.602V42.16H166.362V40.12ZM170.702 50H168.262V37.04H170.702V50Z" fill="#223300"/>
<path d="M37.704 119.52C37.704 118.88 37.864 118.325 38.184 117.856C38.504 117.376 38.952 117.003 39.528 116.736C40.104 116.469 40.776 116.336 41.544 116.336C42.2373 116.336 42.84 116.459 43.352 116.704C43.8747 116.949 44.2907 117.301 44.6 117.76C44.9093 118.219 45.0907 118.768 45.144 119.408H43.976C43.912 118.768 43.6667 118.272 43.24 117.92C42.8133 117.557 42.2427 117.376 41.528 117.376C40.728 117.376 40.0827 117.568 39.592 117.952C39.1013 118.336 38.856 118.853 38.856 119.504C38.856 120.005 39.0053 120.421 39.304 120.752C39.6027 121.072 40.0507 121.307 40.648 121.456L42.616 121.936C43.512 122.149 44.1893 122.512 44.648 123.024C45.1067 123.525 45.336 124.165 45.336 124.944C45.336 125.595 45.176 126.165 44.856 126.656C44.536 127.147 44.0827 127.525 43.496 127.792C42.9093 128.059 42.2213 128.192 41.432 128.192C40.696 128.192 40.04 128.069 39.464 127.824C38.8987 127.579 38.4507 127.227 38.12 126.768C37.8 126.309 37.6133 125.771 37.56 125.152H38.744C38.776 125.76 39.0373 126.245 39.528 126.608C40.0187 126.96 40.6533 127.136 41.432 127.136C42.2747 127.136 42.9413 126.944 43.432 126.56C43.9333 126.176 44.184 125.659 44.184 125.008C44.184 124.485 44.0347 124.064 43.736 123.744C43.448 123.413 42.9947 123.173 42.376 123.024L40.44 122.544C39.544 122.331 38.8613 121.973 38.392 121.472C37.9333 120.96 37.704 120.309 37.704 119.52ZM46.3036 120.256H50.4956V121.184H46.3036V120.256ZM48.9436 128H47.8556V117.808H48.9436V128ZM54.0323 128.192C53.2109 128.192 52.5656 127.979 52.0963 127.552C51.6376 127.125 51.4083 126.576 51.4083 125.904C51.4083 125.189 51.6643 124.619 52.1763 124.192C52.6883 123.765 53.3976 123.515 54.3043 123.44L56.8643 123.232V122.976C56.8643 122.464 56.7736 122.064 56.5923 121.776C56.4109 121.477 56.1656 121.269 55.8563 121.152C55.5469 121.035 55.2003 120.976 54.8163 120.976C54.1336 120.976 53.6056 121.12 53.2323 121.408C52.8589 121.696 52.6723 122.101 52.6723 122.624H51.6643C51.6643 122.101 51.7976 121.648 52.0643 121.264C52.3309 120.88 52.7043 120.581 53.1843 120.368C53.6643 120.155 54.2189 120.048 54.8483 120.048C55.4563 120.048 55.9896 120.155 56.4483 120.368C56.9069 120.571 57.2696 120.891 57.5363 121.328C57.8136 121.755 57.9523 122.309 57.9523 122.992V128H57.0243L56.8803 126.64C56.6456 127.131 56.2723 127.515 55.7603 127.792C55.2589 128.059 54.6829 128.192 54.0323 128.192ZM54.2883 127.296C55.1096 127.296 55.7443 127.035 56.1923 126.512C56.6403 125.989 56.8643 125.312 56.8643 124.48V124.064L54.5763 124.24C53.8509 124.304 53.3283 124.485 53.0082 124.784C52.6883 125.083 52.5283 125.445 52.5283 125.872C52.5283 126.341 52.6883 126.699 53.0082 126.944C53.3283 127.179 53.7549 127.296 54.2883 127.296ZM64.2156 120.16V121.152H63.6076C62.893 121.152 62.3223 121.371 61.8956 121.808C61.4796 122.245 61.2716 122.837 61.2716 123.584V128H60.1676V120.256H61.2076L61.3036 121.776H61.1916C61.2983 121.275 61.5596 120.869 61.9756 120.56C62.3916 120.24 62.8983 120.08 63.4956 120.08C63.613 120.08 63.7303 120.085 63.8476 120.096C63.965 120.107 64.0876 120.128 64.2156 120.16ZM65.1318 120.256H69.3238V121.184H65.1318V120.256ZM67.7718 128H66.6838V117.808H67.7718V128Z" fill="#223300"/>
<path d="M491.704 108.52C491.704 107.88 491.864 107.325 492.184 106.856C492.504 106.376 492.952 106.003 493.528 105.736C494.104 105.469 494.776 105.336 495.544 105.336C496.237 105.336 496.84 105.459 497.352 105.704C497.875 105.949 498.291 106.301 498.6 106.76C498.909 107.219 499.091 107.768 499.144 108.408H497.976C497.912 107.768 497.667 107.272 497.24 106.92C496.813 106.557 496.243 106.376 495.528 106.376C494.728 106.376 494.083 106.568 493.592 106.952C493.101 107.336 492.856 107.853 492.856 108.504C492.856 109.005 493.005 109.421 493.304 109.752C493.603 110.072 494.051 110.307 494.648 110.456L496.616 110.936C497.512 111.149 498.189 111.512 498.648 112.024C499.107 112.525 499.336 113.165 499.336 113.944C499.336 114.595 499.176 115.165 498.856 115.656C498.536 116.147 498.083 116.525 497.496 116.792C496.909 117.059 496.221 117.192 495.432 117.192C494.696 117.192 494.04 117.069 493.464 116.824C492.899 116.579 492.451 116.227 492.12 115.768C491.8 115.309 491.613 114.771 491.56 114.152H492.744C492.776 114.76 493.037 115.245 493.528 115.608C494.019 115.96 494.653 116.136 495.432 116.136C496.275 116.136 496.941 115.944 497.432 115.56C497.933 115.176 498.184 114.659 498.184 114.008C498.184 113.485 498.035 113.064 497.736 112.744C497.448 112.413 496.995 112.173 496.376 112.024L494.44 111.544C493.544 111.331 492.861 110.973 492.392 110.472C491.933 109.96 491.704 109.309 491.704 108.52ZM500.304 109.256H504.496V110.184H500.304V109.256ZM502.944 117H501.856V106.808H502.944V117ZM508.032 117.192C507.211 117.192 506.566 116.979 506.096 116.552C505.638 116.125 505.408 115.576 505.408 114.904C505.408 114.189 505.664 113.619 506.176 113.192C506.688 112.765 507.398 112.515 508.304 112.44L510.864 112.232V111.976C510.864 111.464 510.774 111.064 510.592 110.776C510.411 110.477 510.166 110.269 509.856 110.152C509.547 110.035 509.2 109.976 508.816 109.976C508.134 109.976 507.606 110.12 507.232 110.408C506.859 110.696 506.672 111.101 506.672 111.624H505.664C505.664 111.101 505.798 110.648 506.064 110.264C506.331 109.88 506.704 109.581 507.184 109.368C507.664 109.155 508.219 109.048 508.848 109.048C509.456 109.048 509.99 109.155 510.448 109.368C510.907 109.571 511.27 109.891 511.536 110.328C511.814 110.755 511.952 111.309 511.952 111.992V117H511.024L510.88 115.64C510.646 116.131 510.272 116.515 509.76 116.792C509.259 117.059 508.683 117.192 508.032 117.192ZM508.288 116.296C509.11 116.296 509.744 116.035 510.192 115.512C510.64 114.989 510.864 114.312 510.864 113.48V113.064L508.576 113.24C507.851 113.304 507.328 113.485 507.008 113.784C506.688 114.083 506.528 114.445 506.528 114.872C506.528 115.341 506.688 115.699 507.008 115.944C507.328 116.179 507.755 116.296 508.288 116.296ZM518.216 109.16V110.152H517.608C516.893 110.152 516.322 110.371 515.896 110.808C515.48 111.245 515.272 111.837 515.272 112.584V117H514.168V109.256H515.208L515.304 110.776H515.192C515.298 110.275 515.56 109.869 515.976 109.56C516.392 109.24 516.898 109.08 517.496 109.08C517.613 109.08 517.73 109.085 517.848 109.096C517.965 109.107 518.088 109.128 518.216 109.16ZM519.132 109.256H523.324V110.184H519.132V109.256ZM521.772 117H520.684V106.808H521.772V117Z" fill="#223300"/>
<path d="M590.064 117.176C588.997 117.176 588.059 116.931 587.248 116.44C586.448 115.939 585.819 115.245 585.36 114.36C584.912 113.475 584.688 112.445 584.688 111.272C584.688 110.099 584.917 109.069 585.376 108.184C585.835 107.288 586.475 106.595 587.296 106.104C588.117 105.603 589.061 105.352 590.128 105.352C590.96 105.352 591.712 105.507 592.384 105.816C593.056 106.125 593.621 106.563 594.08 107.128C594.539 107.683 594.843 108.344 594.992 109.112H593.76C593.515 108.28 593.067 107.629 592.416 107.16C591.765 106.691 590.987 106.456 590.08 106.456C589.248 106.456 588.512 106.659 587.872 107.064C587.243 107.459 586.752 108.019 586.4 108.744C586.059 109.459 585.888 110.301 585.888 111.272C585.888 112.221 586.064 113.059 586.416 113.784C586.768 114.509 587.259 115.075 587.888 115.48C588.517 115.875 589.248 116.072 590.08 116.072C590.987 116.072 591.776 115.843 592.448 115.384C593.12 114.925 593.579 114.317 593.824 113.56H595.056C594.885 114.275 594.56 114.904 594.08 115.448C593.611 115.992 593.029 116.419 592.336 116.728C591.643 117.027 590.885 117.176 590.064 117.176ZM600.056 117.192C599.31 117.192 598.648 117.021 598.072 116.68C597.507 116.339 597.064 115.864 596.744 115.256C596.424 114.648 596.264 113.939 596.264 113.128C596.264 112.328 596.419 111.624 596.728 111.016C597.048 110.397 597.486 109.917 598.04 109.576C598.595 109.224 599.24 109.048 599.976 109.048C600.68 109.048 601.294 109.203 601.816 109.512C602.35 109.821 602.76 110.253 603.048 110.808C603.347 111.352 603.496 111.992 603.496 112.728V113.272H596.872L596.904 112.472H602.392C602.392 111.725 602.168 111.128 601.72 110.68C601.283 110.221 600.702 109.992 599.976 109.992C599.443 109.992 598.974 110.115 598.568 110.36C598.174 110.605 597.87 110.957 597.656 111.416C597.443 111.864 597.336 112.397 597.336 113.016C597.336 114.04 597.571 114.835 598.04 115.4C598.52 115.965 599.198 116.248 600.072 116.248C600.702 116.248 601.219 116.115 601.624 115.848C602.03 115.581 602.302 115.192 602.44 114.68H603.496C603.294 115.491 602.899 116.115 602.312 116.552C601.726 116.979 600.974 117.192 600.056 117.192ZM606.365 117H605.261V109.256H606.221L606.381 110.6C606.637 110.109 607 109.731 607.469 109.464C607.949 109.187 608.472 109.048 609.037 109.048C610.104 109.048 610.872 109.341 611.341 109.928C611.811 110.515 612.045 111.293 612.045 112.264V117H610.941V112.504C610.941 111.597 610.749 110.963 610.365 110.6C609.992 110.237 609.485 110.056 608.845 110.056C608.056 110.056 607.443 110.323 607.005 110.856C606.579 111.379 606.365 112.077 606.365 112.952V117ZM613.382 109.256H617.574V110.184H613.382V109.256ZM616.022 117H614.934V106.808H616.022V117ZM622.181 117.192C621.435 117.192 620.773 117.021 620.197 116.68C619.632 116.339 619.189 115.864 618.869 115.256C618.549 114.648 618.389 113.939 618.389 113.128C618.389 112.328 618.544 111.624 618.853 111.016C619.173 110.397 619.611 109.917 620.165 109.576C620.72 109.224 621.365 109.048 622.101 109.048C622.805 109.048 623.419 109.203 623.941 109.512C624.475 109.821 624.885 110.253 625.173 110.808C625.472 111.352 625.621 111.992 625.621 112.728V113.272H618.997L619.029 112.472H624.517C624.517 111.725 624.293 111.128 623.845 110.68C623.408 110.221 622.827 109.992 622.101 109.992C621.568 109.992 621.099 110.115 620.693 110.36C620.299 110.605 619.995 110.957 619.781 111.416C619.568 111.864 619.461 112.397 619.461 113.016C619.461 114.04 619.696 114.835 620.165 115.4C620.645 115.965 621.323 116.248 622.197 116.248C622.827 116.248 623.344 116.115 623.749 115.848C624.155 115.581 624.427 115.192 624.565 114.68H625.621C625.419 115.491 625.024 116.115 624.437 116.552C623.851 116.979 623.099 117.192 622.181 117.192ZM631.434 109.16V110.152H630.826C630.112 110.152 629.541 110.371 629.114 110.808C628.698 111.245 628.49 111.837 628.49 112.584V117H627.386V109.256H628.426L628.522 110.776H628.41C628.517 110.275 628.778 109.869 629.194 109.56C629.61 109.24 630.117 109.08 630.714 109.08C630.832 109.08 630.949 109.085 631.066 109.096C631.184 109.107 631.306 109.128 631.434 109.16Z" fill="#223300"/>
<path d="M685.256 117H678.392V105.544H685.24V106.6H678.824L679.544 105.976V110.728H684.712V111.768H679.544V116.568L678.824 115.944H685.256V117ZM688.459 117H687.355V109.256H688.315L688.475 110.6C688.731 110.109 689.094 109.731 689.563 109.464C690.043 109.187 690.566 109.048 691.131 109.048C692.198 109.048 692.966 109.341 693.435 109.928C693.904 110.515 694.139 111.293 694.139 112.264V117H693.035V112.504C693.035 111.597 692.843 110.963 692.459 110.6C692.086 110.237 691.579 110.056 690.939 110.056C690.15 110.056 689.536 110.323 689.099 110.856C688.672 111.379 688.459 112.077 688.459 112.952V117ZM699.38 117.192C698.633 117.192 697.993 117.016 697.46 116.664C696.926 116.312 696.516 115.832 696.228 115.224C695.94 114.605 695.796 113.912 695.796 113.144C695.796 112.365 695.94 111.667 696.228 111.048C696.516 110.429 696.926 109.944 697.46 109.592C698.004 109.229 698.66 109.048 699.428 109.048C700.068 109.048 700.633 109.187 701.124 109.464C701.625 109.741 702.009 110.163 702.276 110.728V105.336H703.38V117H702.42L702.308 115.416C702.03 116.013 701.636 116.461 701.124 116.76C700.612 117.048 700.03 117.192 699.38 117.192ZM699.572 116.184C700.148 116.184 700.633 116.056 701.028 115.8C701.422 115.533 701.726 115.171 701.94 114.712C702.153 114.243 702.26 113.709 702.26 113.112C702.26 112.515 702.153 111.987 701.94 111.528C701.726 111.069 701.422 110.707 701.028 110.44C700.633 110.173 700.148 110.04 699.572 110.04C699.017 110.04 698.537 110.173 698.132 110.44C697.737 110.707 697.433 111.069 697.22 111.528C697.017 111.987 696.916 112.515 696.916 113.112C696.916 113.709 697.017 114.243 697.22 114.712C697.433 115.171 697.737 115.533 698.132 115.8C698.537 116.056 699.017 116.184 699.572 116.184Z" fill="#223300"/>
<path d="M43.064 260.176C41.9973 260.176 41.0587 259.931 40.248 259.44C39.448 258.939 38.8187 258.245 38.36 257.36C37.912 256.475 37.688 255.445 37.688 254.272C37.688 253.099 37.9173 252.069 38.376 251.184C38.8347 250.288 39.4747 249.595 40.296 249.104C41.1173 248.603 42.0613 248.352 43.128 248.352C43.96 248.352 44.712 248.507 45.384 248.816C46.056 249.125 46.6213 249.563 47.08 250.128C47.5387 250.683 47.8427 251.344 47.992 252.112H46.76C46.5147 251.28 46.0667 250.629 45.416 250.16C44.7653 249.691 43.9867 249.456 43.08 249.456C42.248 249.456 41.512 249.659 40.872 250.064C40.2427 250.459 39.752 251.019 39.4 251.744C39.0587 252.459 38.888 253.301 38.888 254.272C38.888 255.221 39.064 256.059 39.416 256.784C39.768 257.509 40.2587 258.075 40.888 258.48C41.5173 258.875 42.248 259.072 43.08 259.072C43.9867 259.072 44.776 258.843 45.448 258.384C46.12 257.925 46.5787 257.317 46.824 256.56H48.056C47.8853 257.275 47.56 257.904 47.08 258.448C46.6107 258.992 46.0293 259.419 45.336 259.728C44.6427 260.027 43.8853 260.176 43.064 260.176ZM53.0563 260.192C52.3096 260.192 51.6483 260.021 51.0723 259.68C50.5069 259.339 50.0643 258.864 49.7443 258.256C49.4243 257.648 49.2643 256.939 49.2643 256.128C49.2643 255.328 49.4189 254.624 49.7283 254.016C50.0483 253.397 50.4856 252.917 51.0403 252.576C51.5949 252.224 52.2403 252.048 52.9763 252.048C53.6803 252.048 54.2936 252.203 54.8163 252.512C55.3496 252.821 55.7603 253.253 56.0483 253.808C56.3469 254.352 56.4963 254.992 56.4963 255.728V256.272H49.8723L49.9043 255.472H55.3923C55.3923 254.725 55.1683 254.128 54.7203 253.68C54.2829 253.221 53.7016 252.992 52.9763 252.992C52.4429 252.992 51.9736 253.115 51.5683 253.36C51.1736 253.605 50.8696 253.957 50.6562 254.416C50.4429 254.864 50.3363 255.397 50.3363 256.016C50.3363 257.04 50.5709 257.835 51.0403 258.4C51.5203 258.965 52.1976 259.248 53.0723 259.248C53.7016 259.248 54.2189 259.115 54.6243 258.848C55.0296 258.581 55.3016 258.192 55.4403 257.68H56.4963C56.2936 258.491 55.8989 259.115 55.3123 259.552C54.7256 259.979 53.9736 260.192 53.0563 260.192ZM59.3654 260H58.2614V252.256H59.2214L59.3814 253.6C59.6374 253.109 60 252.731 60.4694 252.464C60.9494 252.187 61.472 252.048 62.0374 252.048C63.104 252.048 63.872 252.341 64.3414 252.928C64.8107 253.515 65.0454 254.293 65.0454 255.264V260H63.9414V255.504C63.9414 254.597 63.7494 253.963 63.3654 253.6C62.992 253.237 62.4854 253.056 61.8454 253.056C61.056 253.056 60.4427 253.323 60.0054 253.856C59.5787 254.379 59.3654 255.077 59.3654 255.952V260ZM66.3818 252.256H70.5738V253.184H66.3818V252.256ZM69.0218 260H67.9338V249.808H69.0218V260ZM75.1813 260.192C74.4346 260.192 73.7733 260.021 73.1973 259.68C72.6319 259.339 72.1893 258.864 71.8693 258.256C71.5493 257.648 71.3893 256.939 71.3893 256.128C71.3893 255.328 71.5439 254.624 71.8533 254.016C72.1733 253.397 72.6106 252.917 73.1653 252.576C73.7199 252.224 74.3653 252.048 75.1013 252.048C75.8053 252.048 76.4186 252.203 76.9413 252.512C77.4746 252.821 77.8853 253.253 78.1733 253.808C78.4719 254.352 78.6213 254.992 78.6213 255.728V256.272H71.9973L72.0293 255.472H77.5173C77.5173 254.725 77.2933 254.128 76.8453 253.68C76.4079 253.221 75.8266 252.992 75.1013 252.992C74.5679 252.992 74.0986 253.115 73.6933 253.36C73.2986 253.605 72.9946 253.957 72.7812 254.416C72.5679 254.864 72.4613 255.397 72.4613 256.016C72.4613 257.04 72.6959 257.835 73.1653 258.4C73.6453 258.965 74.3226 259.248 75.1973 259.248C75.8266 259.248 76.3439 259.115 76.7493 258.848C77.1546 258.581 77.4266 258.192 77.5653 257.68H78.6213C78.4186 258.491 78.0239 259.115 77.4373 259.552C76.8506 259.979 76.0986 260.192 75.1813 260.192ZM84.4344 252.16V253.152H83.8264C83.1117 253.152 82.541 253.371 82.1144 253.808C81.6984 254.245 81.4904 254.837 81.4904 255.584V260H80.3864V252.256H81.4264L81.5224 253.776H81.4104C81.517 253.275 81.7784 252.869 82.1944 252.56C82.6104 252.24 83.117 252.08 83.7144 252.08C83.8317 252.08 83.949 252.085 84.0664 252.096C84.1837 252.107 84.3064 252.128 84.4344 252.16Z" fill="#223300"/>
<path d="M45.256 381H38.392V369.544H45.24V370.6H38.824L39.544 369.976V374.728H44.712V375.768H39.544V380.568L38.824 379.944H45.256V381ZM48.4591 381H47.3551V373.256H48.3151L48.4751 374.6C48.7311 374.109 49.0938 373.731 49.5631 373.464C50.0431 373.187 50.5658 373.048 51.1311 373.048C52.1978 373.048 52.9658 373.341 53.4351 373.928C53.9045 374.515 54.1391 375.293 54.1391 376.264V381H53.0351V376.504C53.0351 375.597 52.8431 374.963 52.4591 374.6C52.0858 374.237 51.5791 374.056 50.9391 374.056C50.1498 374.056 49.5365 374.323 49.0991 374.856C48.6725 375.379 48.4591 376.077 48.4591 376.952V381ZM59.3795 381.192C58.6328 381.192 57.9928 381.016 57.4595 380.664C56.9262 380.312 56.5155 379.832 56.2275 379.224C55.9395 378.605 55.7955 377.912 55.7955 377.144C55.7955 376.365 55.9395 375.667 56.2275 375.048C56.5155 374.429 56.9262 373.944 57.4595 373.592C58.0035 373.229 58.6595 373.048 59.4275 373.048C60.0675 373.048 60.6328 373.187 61.1235 373.464C61.6248 373.741 62.0088 374.163 62.2755 374.728V369.336H63.3795V381H62.4195L62.3075 379.416C62.0302 380.013 61.6355 380.461 61.1235 380.76C60.6115 381.048 60.0302 381.192 59.3795 381.192ZM59.5715 380.184C60.1475 380.184 60.6328 380.056 61.0275 379.8C61.4222 379.533 61.7262 379.171 61.9395 378.712C62.1528 378.243 62.2595 377.709 62.2595 377.112C62.2595 376.515 62.1528 375.987 61.9395 375.528C61.7262 375.069 61.4222 374.707 61.0275 374.44C60.6328 374.173 60.1475 374.04 59.5715 374.04C59.0168 374.04 58.5368 374.173 58.1315 374.44C57.7368 374.707 57.4328 375.069 57.2195 375.528C57.0168 375.987 56.9155 376.515 56.9155 377.112C56.9155 377.709 57.0168 378.243 57.2195 378.712C57.4328 379.171 57.7368 379.533 58.1315 379.8C58.5368 380.056 59.0168 380.184 59.5715 380.184Z" fill="#223300"/>
<rect x="37" y="145" width="316" height="66" rx="8" fill="#577A01"/>
<rect x="45" y="153" width="50" height="50" rx="8" fill="#93C91E"/>
<rect x="103" y="153" width="50" height="50" rx="8" fill="#93C91E"/>
<rect x="161" y="153" width="50" height="50" rx="8" fill="#93C91E"/>
<rect x="491" y="145" width="66" height="308" rx="8" fill="#577A01"/>
<rect x="499" y="153" width="50" height="50" rx="8" fill="#93C91E"/>
<rect x="499" y="211" width="50" height="50" rx="8" fill="#93C91E"/>
<rect x="499" y="269" width="50" height="50" rx="8" fill="#93C91E"/>
<rect x="584" y="145" width="66" height="308" rx="8" fill="#577A01"/>
<rect x="592" y="216" width="50" height="50" rx="8" fill="#93C91E"/>
<rect x="592" y="274" width="50" height="50" rx="8" fill="#93C91E"/>
<rect x="592" y="332" width="50" height="50" rx="8" fill="#93C91E"/>
<rect x="677" y="145" width="66" height="308" rx="8" fill="#577A01"/>
<rect x="685" y="279" width="50" height="50" rx="8" fill="#93C91E"/>
<rect x="685" y="337" width="50" height="50" rx="8" fill="#93C91E"/>
<rect x="685" y="395" width="50" height="50" rx="8" fill="#93C91E"/>
<rect x="37" y="277" width="316" height="66" rx="8" fill="#577A01"/>
<rect x="112" y="285" width="50" height="50" rx="8" fill="#93C91E"/>
<rect x="170" y="285" width="50" height="50" rx="8" fill="#93C91E"/>
<rect x="228" y="285" width="50" height="50" rx="8" fill="#93C91E"/>
<rect x="37" y="398" width="316" height="66" rx="8" fill="#577A01"/>
<rect x="179" y="406" width="50" height="50" rx="8" fill="#93C91E"/>
<rect x="237" y="406" width="50" height="50" rx="8" fill="#93C91E"/>
<rect x="295" y="406" width="50" height="50" rx="8" fill="#93C91E"/>
</svg>
