<svg width="908" height="322" viewBox="0 0 908 322" fill="none" xmlns="http://www.w3.org/2000/svg">
<rect width="908" height="322" fill="#DEF4C6"/>
<rect x="44.5" y="44.5" width="812" height="233" rx="21.5" stroke="#699301" stroke-width="3"/>
<rect x="89" y="85" width="152" height="152" rx="15" fill="#699301"/>
<rect x="300" y="85" width="152" height="152" rx="15" fill="#699301"/>
<path d="M52.6464 160.146C52.4512 160.342 52.4512 160.658 52.6464 160.854L55.8284 164.036C56.0237 164.231 56.3403 164.231 56.5355 164.036C56.7308 163.84 56.7308 163.524 56.5355 163.328L53.7071 160.5L56.5355 157.672C56.7308 157.476 56.7308 157.16 56.5355 156.964C56.3403 156.769 56.0237 156.769 55.8284 156.964L52.6464 160.146ZM85.3536 160.854C85.5488 160.658 85.5488 160.342 85.3536 160.146L82.1716 156.964C81.9763 156.769 81.6597 156.769 81.4645 156.964C81.2692 157.16 81.2692 157.476 81.4645 157.672L84.2929 160.5L81.4645 163.328C81.2692 163.524 81.2692 163.84 81.4645 164.036C81.6597 164.231 81.9763 164.231 82.1716 164.036L85.3536 160.854ZM53 160.5V161H85V160.5V160H53V160.5Z" fill="#131F00"/>
<path d="M254.646 160.646C254.451 160.842 254.451 161.158 254.646 161.354L257.828 164.536C258.024 164.731 258.34 164.731 258.536 164.536C258.731 164.34 258.731 164.024 258.536 163.828L255.707 161L258.536 158.172C258.731 157.976 258.731 157.66 258.536 157.464C258.34 157.269 258.024 157.269 257.828 157.464L254.646 160.646ZM287.354 161.354C287.549 161.158 287.549 160.842 287.354 160.646L284.172 157.464C283.976 157.269 283.66 157.269 283.464 157.464C283.269 157.66 283.269 157.976 283.464 158.172L286.293 161L283.464 163.828C283.269 164.024 283.269 164.34 283.464 164.536C283.66 164.731 283.976 164.731 284.172 164.536L287.354 161.354ZM255 161V161.5H287V161V160.5H255V161Z" fill="#131F00"/>
<path d="M52.59 130.84V138H51.87V130.84H52.59ZM54.6 135.37H52.44V134.72H54.46C54.98 134.72 55.3833 134.57 55.67 134.27C55.9567 133.963 56.1 133.567 56.1 133.08C56.1 132.587 55.9567 132.2 55.67 131.92C55.3833 131.633 54.9933 131.49 54.5 131.49H52.13V130.84H54.6C55.06 130.84 55.4567 130.933 55.79 131.12C56.13 131.307 56.39 131.57 56.57 131.91C56.7567 132.25 56.85 132.643 56.85 133.09C56.85 133.523 56.7567 133.913 56.57 134.26C56.39 134.607 56.13 134.88 55.79 135.08C55.4567 135.273 55.06 135.37 54.6 135.37ZM59.0573 138.12C58.5439 138.12 58.1406 137.987 57.8473 137.72C57.5606 137.453 57.4173 137.11 57.4173 136.69C57.4173 136.243 57.5773 135.887 57.8973 135.62C58.2173 135.353 58.6606 135.197 59.2273 135.15L60.8273 135.02V134.86C60.8273 134.54 60.7706 134.29 60.6573 134.11C60.5439 133.923 60.3906 133.793 60.1973 133.72C60.0039 133.647 59.7873 133.61 59.5473 133.61C59.1206 133.61 58.7906 133.7 58.5573 133.88C58.3239 134.06 58.2073 134.313 58.2073 134.64H57.5773C57.5773 134.313 57.6606 134.03 57.8273 133.79C57.9939 133.55 58.2273 133.363 58.5273 133.23C58.8273 133.097 59.1739 133.03 59.5673 133.03C59.9473 133.03 60.2806 133.097 60.5673 133.23C60.8539 133.357 61.0806 133.557 61.2473 133.83C61.4206 134.097 61.5073 134.443 61.5073 134.87V138H60.9273L60.8373 137.15C60.6906 137.457 60.4573 137.697 60.1373 137.87C59.8239 138.037 59.4639 138.12 59.0573 138.12ZM59.2173 137.56C59.7306 137.56 60.1273 137.397 60.4073 137.07C60.6873 136.743 60.8273 136.32 60.8273 135.8V135.54L59.3973 135.65C58.9439 135.69 58.6173 135.803 58.4173 135.99C58.2173 136.177 58.1173 136.403 58.1173 136.67C58.1173 136.963 58.2173 137.187 58.4173 137.34C58.6173 137.487 58.8839 137.56 59.2173 137.56ZM64.7919 138.12C64.3252 138.12 63.9252 138.01 63.5919 137.79C63.2585 137.57 63.0019 137.27 62.8219 136.89C62.6419 136.503 62.5519 136.07 62.5519 135.59C62.5519 135.103 62.6419 134.667 62.8219 134.28C63.0019 133.893 63.2585 133.59 63.5919 133.37C63.9319 133.143 64.3419 133.03 64.8219 133.03C65.2219 133.03 65.5752 133.117 65.8819 133.29C66.1952 133.463 66.4352 133.727 66.6019 134.08V130.71H67.2919V138H66.6919L66.6219 137.01C66.4485 137.383 66.2019 137.663 65.8819 137.85C65.5619 138.03 65.1985 138.12 64.7919 138.12ZM64.9119 137.49C65.2719 137.49 65.5752 137.41 65.8219 137.25C66.0685 137.083 66.2585 136.857 66.3919 136.57C66.5252 136.277 66.5919 135.943 66.5919 135.57C66.5919 135.197 66.5252 134.867 66.3919 134.58C66.2585 134.293 66.0685 134.067 65.8219 133.9C65.5752 133.733 65.2719 133.65 64.9119 133.65C64.5652 133.65 64.2652 133.733 64.0119 133.9C63.7652 134.067 63.5752 134.293 63.4419 134.58C63.3152 134.867 63.2519 135.197 63.2519 135.57C63.2519 135.943 63.3152 136.277 63.4419 136.57C63.5752 136.857 63.7652 137.083 64.0119 137.25C64.2652 137.41 64.5652 137.49 64.9119 137.49ZM70.6317 138.12C70.1651 138.12 69.7651 138.01 69.4317 137.79C69.0984 137.57 68.8417 137.27 68.6617 136.89C68.4817 136.503 68.3917 136.07 68.3917 135.59C68.3917 135.103 68.4817 134.667 68.6617 134.28C68.8417 133.893 69.0984 133.59 69.4317 133.37C69.7717 133.143 70.1817 133.03 70.6617 133.03C71.0617 133.03 71.4151 133.117 71.7217 133.29C72.0351 133.463 72.2751 133.727 72.4417 134.08V130.71H73.1317V138H72.5317L72.4617 137.01C72.2884 137.383 72.0417 137.663 71.7217 137.85C71.4017 138.03 71.0384 138.12 70.6317 138.12ZM70.7517 137.49C71.1117 137.49 71.4151 137.41 71.6617 137.25C71.9084 137.083 72.0984 136.857 72.2317 136.57C72.3651 136.277 72.4317 135.943 72.4317 135.57C72.4317 135.197 72.3651 134.867 72.2317 134.58C72.0984 134.293 71.9084 134.067 71.6617 133.9C71.4151 133.733 71.1117 133.65 70.7517 133.65C70.4051 133.65 70.1051 133.733 69.8517 133.9C69.6051 134.067 69.4151 134.293 69.2817 134.58C69.1551 134.867 69.0917 135.197 69.0917 135.57C69.0917 135.943 69.1551 136.277 69.2817 136.57C69.4151 136.857 69.6051 137.083 69.8517 137.25C70.1051 137.41 70.4051 137.49 70.7517 137.49ZM74.5716 138V133.16H75.2616V138H74.5716ZM74.9116 131.83C74.7716 131.83 74.6516 131.78 74.5516 131.68C74.4516 131.58 74.4016 131.46 74.4016 131.32C74.4016 131.18 74.4516 131.06 74.5516 130.96C74.6516 130.853 74.7716 130.8 74.9116 130.8C75.0516 130.8 75.1716 130.853 75.2716 130.96C75.3782 131.06 75.4316 131.18 75.4316 131.32C75.4316 131.46 75.3782 131.58 75.2716 131.68C75.1716 131.78 75.0516 131.83 74.9116 131.83ZM77.3905 138H76.7005V133.16H77.3005L77.4005 134C77.5605 133.693 77.7871 133.457 78.0805 133.29C78.3805 133.117 78.7071 133.03 79.0605 133.03C79.7271 133.03 80.2071 133.213 80.5005 133.58C80.7938 133.947 80.9405 134.433 80.9405 135.04V138H80.2505V135.19C80.2505 134.623 80.1305 134.227 79.8905 134C79.6571 133.773 79.3405 133.66 78.9405 133.66C78.4471 133.66 78.0638 133.827 77.7905 134.16C77.5238 134.487 77.3905 134.923 77.3905 135.47V138ZM81.9857 135.44C81.9857 135 82.0757 134.6 82.2557 134.24C82.4357 133.873 82.6957 133.58 83.0357 133.36C83.3757 133.14 83.7824 133.03 84.2557 133.03C84.7157 133.03 85.109 133.143 85.4357 133.37C85.7624 133.597 85.9957 133.923 86.1357 134.35L86.0257 134.49L86.1157 133.16H86.7157V137.85C86.7157 138.33 86.619 138.747 86.4257 139.1C86.2324 139.46 85.959 139.737 85.6057 139.93C85.259 140.13 84.849 140.23 84.3757 140.23C83.7557 140.23 83.2424 140.063 82.8357 139.73C82.429 139.397 82.1757 138.94 82.0757 138.36H82.7657C82.839 138.753 83.0157 139.057 83.2957 139.27C83.5824 139.49 83.9457 139.6 84.3857 139.6C84.8857 139.6 85.2857 139.447 85.5857 139.14C85.8857 138.833 86.0357 138.427 86.0357 137.92V136.4L86.1357 136.53C85.9957 136.937 85.7524 137.26 85.4057 137.5C85.0657 137.733 84.6657 137.85 84.2057 137.85C83.7457 137.85 83.349 137.74 83.0157 137.52C82.6824 137.3 82.4257 137.01 82.2457 136.65C82.0724 136.283 81.9857 135.88 81.9857 135.44ZM82.6757 135.43C82.6757 135.763 82.739 136.067 82.8657 136.34C82.999 136.613 83.1857 136.83 83.4257 136.99C83.6724 137.15 83.9657 137.23 84.3057 137.23C84.6524 137.23 84.949 137.153 85.1957 137C85.449 136.84 85.6424 136.627 85.7757 136.36C85.909 136.087 85.9757 135.777 85.9757 135.43C85.9757 135.083 85.909 134.777 85.7757 134.51C85.649 134.243 85.4624 134.033 85.2157 133.88C84.9757 133.72 84.6757 133.64 84.3157 133.64C83.969 133.64 83.6724 133.723 83.4257 133.89C83.1857 134.05 82.999 134.267 82.8657 134.54C82.739 134.807 82.6757 135.103 82.6757 135.43Z" fill="#131F00"/>
<path d="M253.44 132.7C253.44 132.3 253.54 131.953 253.74 131.66C253.94 131.36 254.22 131.127 254.58 130.96C254.94 130.793 255.36 130.71 255.84 130.71C256.273 130.71 256.65 130.787 256.97 130.94C257.297 131.093 257.557 131.313 257.75 131.6C257.943 131.887 258.057 132.23 258.09 132.63H257.36C257.32 132.23 257.167 131.92 256.9 131.7C256.633 131.473 256.277 131.36 255.83 131.36C255.33 131.36 254.927 131.48 254.62 131.72C254.313 131.96 254.16 132.283 254.16 132.69C254.16 133.003 254.253 133.263 254.44 133.47C254.627 133.67 254.907 133.817 255.28 133.91L256.51 134.21C257.07 134.343 257.493 134.57 257.78 134.89C258.067 135.203 258.21 135.603 258.21 136.09C258.21 136.497 258.11 136.853 257.91 137.16C257.71 137.467 257.427 137.703 257.06 137.87C256.693 138.037 256.263 138.12 255.77 138.12C255.31 138.12 254.9 138.043 254.54 137.89C254.187 137.737 253.907 137.517 253.7 137.23C253.5 136.943 253.383 136.607 253.35 136.22H254.09C254.11 136.6 254.273 136.903 254.58 137.13C254.887 137.35 255.283 137.46 255.77 137.46C256.297 137.46 256.713 137.34 257.02 137.1C257.333 136.86 257.49 136.537 257.49 136.13C257.49 135.803 257.397 135.54 257.21 135.34C257.03 135.133 256.747 134.983 256.36 134.89L255.15 134.59C254.59 134.457 254.163 134.233 253.87 133.92C253.583 133.6 253.44 133.193 253.44 132.7ZM259.355 140.11V133.16H259.955L260.025 134.14C260.198 133.767 260.445 133.49 260.765 133.31C261.091 133.123 261.455 133.03 261.855 133.03C262.321 133.03 262.721 133.14 263.055 133.36C263.388 133.58 263.645 133.88 263.825 134.26C264.005 134.64 264.095 135.073 264.095 135.56C264.095 136.047 264.005 136.483 263.825 136.87C263.651 137.257 263.398 137.563 263.065 137.79C262.738 138.01 262.335 138.12 261.855 138.12C261.441 138.12 261.078 138.033 260.765 137.86C260.451 137.68 260.211 137.417 260.045 137.07V140.11H259.355ZM260.055 135.58C260.055 135.947 260.121 136.277 260.255 136.57C260.388 136.857 260.578 137.083 260.825 137.25C261.078 137.417 261.381 137.5 261.735 137.5C262.088 137.5 262.388 137.417 262.635 137.25C262.881 137.083 263.068 136.857 263.195 136.57C263.328 136.277 263.395 135.947 263.395 135.58C263.395 135.207 263.328 134.877 263.195 134.59C263.068 134.297 262.881 134.07 262.635 133.91C262.388 133.743 262.088 133.66 261.735 133.66C261.381 133.66 261.078 133.743 260.825 133.91C260.578 134.07 260.388 134.297 260.255 134.59C260.121 134.877 260.055 135.207 260.055 135.58ZM266.585 138.12C266.071 138.12 265.668 137.987 265.375 137.72C265.088 137.453 264.945 137.11 264.945 136.69C264.945 136.243 265.105 135.887 265.425 135.62C265.745 135.353 266.188 135.197 266.755 135.15L268.355 135.02V134.86C268.355 134.54 268.298 134.29 268.185 134.11C268.071 133.923 267.918 133.793 267.725 133.72C267.531 133.647 267.315 133.61 267.075 133.61C266.648 133.61 266.318 133.7 266.085 133.88C265.851 134.06 265.735 134.313 265.735 134.64H265.105C265.105 134.313 265.188 134.03 265.355 133.79C265.521 133.55 265.755 133.363 266.055 133.23C266.355 133.097 266.701 133.03 267.095 133.03C267.475 133.03 267.808 133.097 268.095 133.23C268.381 133.357 268.608 133.557 268.775 133.83C268.948 134.097 269.035 134.443 269.035 134.87V138H268.455L268.365 137.15C268.218 137.457 267.985 137.697 267.665 137.87C267.351 138.037 266.991 138.12 266.585 138.12ZM266.745 137.56C267.258 137.56 267.655 137.397 267.935 137.07C268.215 136.743 268.355 136.32 268.355 135.8V135.54L266.925 135.65C266.471 135.69 266.145 135.803 265.945 135.99C265.745 136.177 265.645 136.403 265.645 136.67C265.645 136.963 265.745 137.187 265.945 137.34C266.145 137.487 266.411 137.56 266.745 137.56ZM270.079 135.59C270.079 135.083 270.176 134.64 270.369 134.26C270.569 133.873 270.843 133.573 271.189 133.36C271.543 133.14 271.953 133.03 272.419 133.03C272.979 133.03 273.449 133.18 273.829 133.48C274.216 133.78 274.456 134.18 274.549 134.68H273.859C273.766 134.347 273.589 134.09 273.329 133.91C273.069 133.73 272.769 133.64 272.429 133.64C272.109 133.64 271.823 133.72 271.569 133.88C271.316 134.04 271.116 134.267 270.969 134.56C270.829 134.847 270.759 135.187 270.759 135.58C270.759 135.967 270.826 136.303 270.959 136.59C271.093 136.877 271.279 137.1 271.519 137.26C271.766 137.42 272.053 137.5 272.379 137.5C272.746 137.5 273.063 137.41 273.329 137.23C273.596 137.043 273.776 136.793 273.869 136.48H274.569C274.496 136.807 274.356 137.093 274.149 137.34C273.943 137.587 273.686 137.78 273.379 137.92C273.079 138.053 272.746 138.12 272.379 138.12C271.919 138.12 271.516 138.017 271.169 137.81C270.829 137.597 270.563 137.3 270.369 136.92C270.176 136.54 270.079 136.097 270.079 135.59ZM275.615 138V133.16H276.305V138H275.615ZM275.955 131.83C275.815 131.83 275.695 131.78 275.595 131.68C275.495 131.58 275.445 131.46 275.445 131.32C275.445 131.18 275.495 131.06 275.595 130.96C275.695 130.853 275.815 130.8 275.955 130.8C276.095 130.8 276.215 130.853 276.315 130.96C276.421 131.06 276.475 131.18 276.475 131.32C276.475 131.46 276.421 131.58 276.315 131.68C276.215 131.78 276.095 131.83 275.955 131.83ZM278.433 138H277.743V133.16H278.343L278.443 134C278.603 133.693 278.83 133.457 279.123 133.29C279.423 133.117 279.75 133.03 280.103 133.03C280.77 133.03 281.25 133.213 281.543 133.58C281.837 133.947 281.983 134.433 281.983 135.04V138H281.293V135.19C281.293 134.623 281.173 134.227 280.933 134C280.7 133.773 280.383 133.66 279.983 133.66C279.49 133.66 279.107 133.827 278.833 134.16C278.567 134.487 278.433 134.923 278.433 135.47V138ZM283.029 135.44C283.029 135 283.119 134.6 283.299 134.24C283.479 133.873 283.739 133.58 284.079 133.36C284.419 133.14 284.825 133.03 285.299 133.03C285.759 133.03 286.152 133.143 286.479 133.37C286.805 133.597 287.039 133.923 287.179 134.35L287.069 134.49L287.159 133.16H287.759V137.85C287.759 138.33 287.662 138.747 287.469 139.1C287.275 139.46 287.002 139.737 286.649 139.93C286.302 140.13 285.892 140.23 285.419 140.23C284.799 140.23 284.285 140.063 283.879 139.73C283.472 139.397 283.219 138.94 283.119 138.36H283.809C283.882 138.753 284.059 139.057 284.339 139.27C284.625 139.49 284.989 139.6 285.429 139.6C285.929 139.6 286.329 139.447 286.629 139.14C286.929 138.833 287.079 138.427 287.079 137.92V136.4L287.179 136.53C287.039 136.937 286.795 137.26 286.449 137.5C286.109 137.733 285.709 137.85 285.249 137.85C284.789 137.85 284.392 137.74 284.059 137.52C283.725 137.3 283.469 137.01 283.289 136.65C283.115 136.283 283.029 135.88 283.029 135.44ZM283.719 135.43C283.719 135.763 283.782 136.067 283.909 136.34C284.042 136.613 284.229 136.83 284.469 136.99C284.715 137.15 285.009 137.23 285.349 137.23C285.695 137.23 285.992 137.153 286.239 137C286.492 136.84 286.685 136.627 286.819 136.36C286.952 136.087 287.019 135.777 287.019 135.43C287.019 135.083 286.952 134.777 286.819 134.51C286.692 134.243 286.505 134.033 286.259 133.88C286.019 133.72 285.719 133.64 285.359 133.64C285.012 133.64 284.715 133.723 284.469 133.89C284.229 134.05 284.042 134.267 283.909 134.54C283.782 134.807 283.719 135.103 283.719 135.43Z" fill="#131F00"/>
</svg>
